<?xml version="1.0" standalone="no"?>
<!DOCTYPE svg PUBLIC "-//W3C//DTD SVG 1.1//EN" "http://www.w3.org/Graphics/SVG/1.1/DTD/svg11.dtd" >
<svg>
<metadata>
Created by FontForge 20090914 at Fri Feb 24 00:50:08 2012
 By root
Copyright (c) Jeri Ingalls,,,, 2003. All rights reserved.
</metadata>
<defs>
<font id="JIChunkyCaps" horiz-adv-x="500" >
  <font-face 
    font-family="JI Chunky Caps"
    font-weight="400"
    font-variant="small-caps"
    font-stretch="normal"
    units-per-em="1000"
    panose-1="2 0 5 4 2 0 0 2 0 2"
    ascent="800"
    descent="-200"
    x-height="710"
    cap-height="724"
    bbox="40 -155 1015 831"
    underline-thickness="50"
    underline-position="-75"
    unicode-range="U+0020-U+201D"
  />
<missing-glyph 
 />
    <glyph glyph-name=".notdef" 
 />
    <glyph glyph-name=".null" horiz-adv-x="0" 
 />
    <glyph glyph-name="nonmarkingreturn" 
 />
    <glyph glyph-name="space" unicode=" " 
 />
    <glyph glyph-name="space" unicode="&#xa0;" 
 />
    <glyph glyph-name="exclam" unicode="!" horiz-adv-x="346" 
d="M51 55q0 23 8.5 43t23 35t34 23.5t42.5 8.5q29 0 54 -14.5t39 -37.5l33 -32q14 -14 22.5 -33.5t8.5 -42.5q0 -22 -8.5 -41t-23 -33.5t-34 -22.5t-41.5 -8q-45 0 -75 30l-34 34q-23 14 -36 38t-13 53zM188 772q32 -2 52.5 -11t34.5 -34l33 -32q11 -11 19 -29t15 -44
q10 -40 10 -80q0 -35 -8.5 -70t-26.5 -78q-6 -14 -10.5 -25.5l-8.5 -21.5q-9 -24 -15 -38t-13 -27l-16.5 -30l-27.5 -47q-2 -4 -8 -13.5t-8 -14.5l-48 47l-2 -4q-24 44 -39.5 75.5t-26.5 56.5t-19 48l-17 50q-6 22 -9 37t-4.5 26l-2.5 18.5t-1 15.5q0 3 -0.5 5.5t-0.5 5.5
v12q0 37 6.5 73.5t23 65t44 46t68.5 17.5h6zM61 55q0 -42 28 -70t70 -28t71 28t29 70q0 21 -8 39t-21.5 31.5t-31.5 21.5t-39 8t-38.5 -8t-31 -21.5t-21 -31.5t-7.5 -39zM188 762q-44 1 -71.5 -17.5t-42.5 -49.5t-20 -70t-3 -78q0 -6 1 -13l2.5 -17.5t4.5 -26t9 -37.5
l17 -49.5t18 -45.5t23.5 -50.5l33.5 -65.5l38 65t20 37.5t16.5 37.5l26.5 65q13 32 21 59.5t11 54t1 53t-9 56.5q-6 26 -14.5 43.5t-19.5 28t-26.5 15t-36.5 5.5z" />
    <glyph glyph-name="quotedbl" unicode="&#x22;" horiz-adv-x="518" 
d="M277 741q8 37 39 56t68 11q18 -4 36.5 -17t31 -32t16 -41t-8.5 -43q-32 -58 -64.5 -95t-53 -46t-23 14t25.5 84q-38 9 -57.5 40.5t-9.5 68.5zM54 741q8 37 39 56t68 11q18 -4 36.5 -17t31 -32t16 -41t-8.5 -43q-32 -58 -64.5 -95t-53 -46t-23 14t25.5 84
q-38 9 -57.5 40.5t-9.5 68.5zM41 718q0 -23 11 -44.5t31 -35.5l20 -20q-10 -23 -14 -40t-4 -28q0 -25 17 -28l43 -42q5 -5 13 -5q20 0 58 39t76 108q7 12 8 21l1 -1q1 0 2 -1l23 -23q-10 -23 -14 -40t-4 -28q0 -25 17 -28l43 -42q5 -5 13 -5q20 0 58 39t76 108q10 17 10 37
t-9.5 39.5t-24.5 34.5l-32 31q-14 20 -33 34t-38 19v1q-5 2 -12 2h-13q-34 0 -61 -20t-35 -55q-2 -6 -2 -9l-29 28q-14 20 -33 34t-38 19v1q-5 2 -12 2h-13q-34 0 -61 -20t-35 -55q-3 -12 -3 -27z" />
    <glyph glyph-name="quotesingle" unicode="'" horiz-adv-x="295" 
d="M54 731q8 37 39 56t68 11q18 -4 36.5 -17t31 -32t16 -41t-8.5 -43q-32 -58 -64.5 -95t-53 -46t-23 14t25.5 84q-38 9 -57.5 40.5t-9.5 68.5zM41 708q0 -23 11 -44.5t31 -35.5l20 -20q-10 -23 -14 -40t-4 -28q0 -25 17 -28l43 -42q5 -5 13 -5q20 0 58 39t76 108
q10 17 10 37t-9.5 39.5t-24.5 34.5l-32 31q-14 20 -33 34t-38 19v1q-5 2 -12 2h-13q-34 0 -61 -20t-35 -55q-3 -12 -3 -27z" />
    <glyph glyph-name="comma" unicode="," horiz-adv-x="295" 
d="M54 111q8 37 39 56t68 11q18 -4 36.5 -17t31 -32t16 -41t-8.5 -43q-32 -58 -64.5 -95t-53 -46t-23 14t25.5 84q-38 9 -57.5 40.5t-9.5 68.5zM41 88q0 -23 11 -44.5t31 -35.5l20 -19q-10 -23 -14 -40.5t-4 -28.5q0 -24 17 -27l43 -43q5 -5 13 -5q20 0 58 39t76 108
q10 17 10 37t-9.5 39.5t-24.5 34.5l-32 31q-14 20 -33 34t-38 19v1q-5 2 -12 2h-13q-34 0 -61 -20t-35 -55q-3 -12 -3 -27z" />
    <glyph glyph-name="hyphen" unicode="-" horiz-adv-x="601" 
d="M94 240q-17 9 -27.5 23.5t-20.5 35.5q0 4 -0.5 7t-1.5 7q-3 21 -3 45q0 35 15 62t63 42q7 2 26.5 4t42 3l44 2t33.5 1l94 2q27 0 61.5 -4t59.5 -10q28 -8 44 -19.5t24 -27.5l35 -34q18 -19 21.5 -46.5t3.5 -65.5q0 -32 -13.5 -49.5t-39.5 -26.5t-65.5 -11t-90.5 -3h-97
h-32q-17 0 -41 1q-42 0 -65 7.5t-37 21.5zM349 234q49 1 87 3t63.5 10t38.5 24.5t13 45.5q0 27 -1.5 48.5t-8.5 38t-22 28t-42 18.5q-25 6 -58.5 10t-59.5 4l-94 -2q-12 0 -33 -1l-43 -2t-41 -3t-26 -4q-32 -10 -47 -26t-20.5 -36t-3.5 -43t5 -46q8 -17 16.5 -29.5t22 -20.5
t33.5 -12t51 -4q36 -1 57.5 -1.5t37.5 -0.5q17 0 33 0.5t42 0.5z" />
    <glyph glyph-name="period" unicode="." horiz-adv-x="298" 
d="M50 97q0 21 7.5 39t21 31.5t31 21.5t38.5 8t39 -8t31.5 -21.5t21.5 -31.5t8 -39q0 -42 -29 -70t-71 -28t-70 28t-28 70zM40 97q0 -29 13 -53.5t36 -38.5l34 -33q30 -30 75 -30q22 0 41.5 8t34 22.5t23 33.5t8.5 41q0 23 -8.5 42.5t-22.5 33.5l-33 32q-14 23 -39 37.5
t-54 14.5q-23 0 -42.5 -8.5t-34 -23.5t-23 -35t-8.5 -43z" />
    <glyph glyph-name="zero" unicode="0" horiz-adv-x="653" 
d="M356 310q20 11 26 27t8 47q-1 5 -1.5 10t-2.5 10h-2q-1 0 -7 -2h-5q-23 0 -37 -23t-14 -52q0 -6 0.5 -12t2.5 -12h5q13 0 27 7zM180 43q-33 25 -59 59.5t-43.5 76t-27 87.5t-9.5 93q0 48 10 95t31 90.5t53 81t76 65.5v-1q26 19 53.5 27t58.5 8q60 0 118.5 -31.5
t101.5 -86.5l20 -20q35 -35 58.5 -81t31.5 -102q6 -41 6 -81q0 -79 -23 -147.5t-62 -119.5t-90.5 -80t-108.5 -29q-17 0 -35 2.5t-35 8.5q-29 9 -55 25.5t-48 38.5zM400 386q-1 -17 -2.5 -30t-6 -23t-12 -17.5t-19.5 -14.5q-11 -6 -23.5 -7.5t-24 1.5t-21 11t-13.5 20
q-13 21 -14 44.5t6.5 43.5t22 33t32.5 12q9 3 21.5 -0.5t24.5 -13.5t20.5 -25.5t8.5 -36.5v3zM596 453q-7 51 -28 94t-52 76.5t-69 56t-78 31t-79.5 2t-72.5 -30.5q-65 -41 -103 -101t-53 -128t-8 -138t33 -130.5t69.5 -106t101.5 -63.5q48 -17 95.5 -10t88.5 33t74.5 68
t55 96.5t29 118t-3.5 132.5z" />
    <glyph glyph-name="one" unicode="1" horiz-adv-x="455" 
d="M404 648l-2 2zM84 495q-21 11 -32.5 35.5t-11.5 57.5q0 20 4 40.5t14 40.5q18 42 55.5 56t79.5 14q38 0 70.5 -5.5t52.5 -10.5v-1q20 -5 34.5 -16.5t25.5 -28.5l31 -31q17 -17 27.5 -43.5t16.5 -59t8 -69.5t2 -75v-34q-1 -19 -1.5 -42t-1.5 -49l-2 -100.5t-5 -99.5v-1
q-2 -33 -7.5 -54t-16 -34.5t-25.5 -22t-36 -15.5q-8 -1 -16 -1t-15 -1q-9 -1 -17.5 -1.5t-17.5 -0.5q-13 0 -24.5 2.5t-24.5 8.5t-27 17t-31 28l-18 17q-18 13 -40 37q-5 4 -9.5 10.5t-8.5 18t-6.5 28.5t-2.5 44q0 32 4 78t15 115q4 23 5.5 44t1.5 38v9q0 5 -1 10
q-7 4 -13 12zM404 415q1 50 -1 100.5t-11.5 92t-28 70t-51.5 35.5l-57 10.5t-71.5 5.5t-68.5 -14.5t-48 -49.5q-15 -33 -16.5 -64.5t6.5 -55.5t25.5 -37t41.5 -8q16 -5 19.5 -47.5t-6.5 -106.5q-14 -91 -17 -144.5t0 -83t9.5 -41t12.5 -17.5q28 -29 48 -42t38.5 -16.5
t38.5 -1.5t47 4q19 7 33.5 15t24.5 21t15 33t7 51q3 36 4.5 76.5t2 79.5t1.5 74t2 61z" />
    <glyph glyph-name="two" unicode="2" horiz-adv-x="644" 
d="M521 639q34 -30 40.5 -74.5t-7 -91.5t-43 -90t-67.5 -68q-24 -16 -45.5 -34.5t-36.5 -33t-21 -21.5t0 -1q1 1 -3.5 -7t-1.5 -17t20.5 -16t61.5 -3q58 5 91 3t50 -11.5t22.5 -26t10.5 -38.5q7 -35 -12.5 -56t-52.5 -33.5t-74 -17t-77 -5t-62 1.5t-28 2q-4 1 -24.5 0.5
t-48 1.5t-58 9t-55 21.5t-39 39.5t-9.5 64q4 35 13.5 61t21 44.5t22.5 29.5t19 16q27 16 55 38t52 47t41.5 50t25 47.5t2 39.5t-27.5 25q-21 7 -29.5 -2.5t-13 -26t-10 -34.5t-20.5 -28q-6 -4 -29 -6t-47.5 5.5t-44 27.5t-19.5 59q0 51 29 85q17 23 45 40t66 31
q43 12 85.5 17.5t83 1t78.5 -20t71 -45.5zM528 646q-42 38 -90.5 54.5t-101.5 16.5q-34 0 -68 -5.5t-68 -15.5q-39 -15 -67.5 -32t-47.5 -42q-32 -37 -32 -92q0 -33 12.5 -53.5t31.5 -31.5l34 -34q17 -17 41.5 -23.5t44.5 -6.5h10q-25 -26 -55.5 -49.5t-59.5 -40.5h2
q-9 -7 -20 -20t-21.5 -32t-18.5 -44t-12 -57q-1 -5 -1 -10v-9q0 -35 14.5 -57.5t37.5 -36.5l30 -29q19 -20 47 -30.5t56.5 -15t54 -5.5t40.5 -1h15q2 0 23.5 -1.5t53.5 -1.5q35 0 76.5 3.5t77.5 14.5t60 31t24 53q0 5 -0.5 8.5t-1.5 8.5q-4 20 -8.5 35t-15.5 26l-36 35
q-9 20 -30.5 30t-71.5 10q-26 0 -60 -3q-2 0 -5 -0.5t-5 -0.5q-4 -1 -8 -1h-6l43 31.5t52 36.5t48.5 43t39 56.5t26 63.5t9.5 64q0 30 -9.5 57t-30.5 47l-31 30l-10 13.5t-12 12.5z" />
    <glyph glyph-name="three" unicode="3" horiz-adv-x="644" 
d="M319 550q-14 1 -23 -6.5t-14.5 -19t-8.5 -25t-6 -24.5q-6 -24 -22 -40.5t-38.5 -23.5t-50.5 -1.5t-58 26.5q-28 32 -32 72t13 68q22 36 46.5 63t57 43.5t74.5 23t101 2.5q225 -13 214 -187q0 -6 -3.5 -22t-13 -36t-28 -42.5t-49.5 -41.5q33 -16 55 -33t35 -38t18.5 -47.5
t6.5 -60.5q1 -29 -13.5 -61t-40 -60t-58.5 -47.5t-69 -23.5q-56 -6 -106.5 -7t-93.5 9.5t-77.5 36.5t-58.5 73q-16 31 -21.5 59t-3.5 52t10.5 43.5t21.5 34.5q23 26 51.5 32t54.5 -3.5t45 -34t23 -58.5q-1 -11 2 -24q4 -14 12.5 -24t31.5 -12q20 -1 34.5 12t16.5 43
q1 11 -3.5 19.5t-11 16t-13.5 13t-12 10.5q-26 24 -35.5 44t-6 38t18.5 35t39 34q21 9 30.5 18.5t11.5 18.5t0 17t-3 14q-4 20 -21.5 25.5t-28.5 6.5zM280 270l-33 32q-16 25 -40.5 38.5t-50.5 13.5q-21 0 -42 -9t-38 -29q-16 -19 -26 -43.5t-10 -54.5q0 -23 6.5 -48.5
t20.5 -53.5q26 -52 67 -82l28 -27q37 -37 85 -50t106 -13q26 0 53.5 2t56.5 5q36 4 69.5 24t60 48t42 60.5t15.5 62.5v4q-1 47 -11 79.5t-35 57.5l-6 5l3 -3l-28 29q-8 10 -18 21q24 19 38 40t22 39.5t11 32.5t3 20v15q0 73 -44 117l-6 5l3 -3l-27 27q-50 77 -197 86
q-11 1 -21 1h-19q-50 0 -87 -8.5t-65.5 -26t-51.5 -43t-44 -59.5q-14 -22 -14 -59q0 -24 8.5 -48.5t27.5 -46.5q8 -6 12 -8l40 -40q43 -30 86 -30q20 0 33 5q8 -30 44 -63q6 -6 10 -9q9 -8 18 -18.5t9 -21.5v-2q-2 -21 -10.5 -32t-19.5 -13q-2 23 -11 41.5t-23 32.5z
M363 493q-1 -8 -7 -15.5t-22 -15.5q5 12 11.5 20.5t17.5 10.5z" />
    <glyph glyph-name="four" unicode="4" horiz-adv-x="635" 
d="M297 465q0 -1 2 -3zM104 230q-28 17 -45.5 46.5t-17.5 77.5v247q0 15 2.5 34.5t7.5 36.5t13.5 29.5t20.5 12.5h1v1q8 2 22 3.5t41 1.5h13q16 -1 29.5 -1.5t25.5 -4t21.5 -11t17.5 -20.5l36 -36q14 -14 23.5 -45.5t14.5 -90.5v-1v-37q8 12 8 40v13q0 4 -0.5 7t-0.5 7
t-0.5 7.5t-0.5 7.5v15q1 24 5.5 49.5t13.5 46.5t23.5 34.5t35.5 13.5q12 1 18.5 1.5l12.5 1t13 0.5h20q16 0 29.5 -1t24.5 -3q26 -6 38 -31l36 -35q19 -19 23.5 -57t6.5 -89q1 -26 3 -54q2 -40 2.5 -82t0.5 -84v-44q0 -21 -1 -42q0 -20 -0.5 -38.5t-0.5 -35.5v-7
q0 -37 -8 -68t-23.5 -53.5t-40 -35.5t-57.5 -13h-18q-25 1 -50.5 5.5t-43.5 21.5l-35 35q-28 14 -38 51q-2 5 -2 17v30v13v29q-22 0 -48 2t-52 8t-50 17t-42 29zM273 560q-5 57 -13.5 87t-22.5 43.5t-32.5 16t-42.5 3.5q-35 1 -52 -1.5t-25 -4.5q-9 0 -15.5 -11t-10.5 -27
t-6 -33.5t-2 -31.5v-58v-71v-68v-45q-1 -43 14 -70.5t39 -45t54 -25.5t60 -11.5t56 -3.5h42q10 0 14 -19.5t4.5 -44t0 -47.5t1.5 -32q6 -22 18.5 -34t28.5 -17t34 -6l35 -2q34 -2 59 10t41.5 35t24 55t6.5 70q0 36 1 77t1 83t-0.5 84t-2.5 82q-3 41 -4 76.5t-5 63t-14 45
t-29 21.5q-15 3 -34.5 3.5t-37.5 0t-30.5 -1.5l-12.5 -1q-19 0 -32 -12t-20.5 -31.5t-11.5 -43.5t-5 -47q0 -21 1 -40.5t-0.5 -35.5t-8 -26.5t-21.5 -14.5q-16 -4 -24.5 6t-13 27t-5.5 37t-1 37z" />
    <glyph glyph-name="five" unicode="5" horiz-adv-x="555" 
d="M253 273q-45 0 -78 12q11 -8 16 -14.5t9 -12.5l35 -34q2 -2 3 -3.5t3 -3.5q4 0 13 3q22 7 31 17t9 21q0 6 -3 14q-6 2 -10 2h-3q-7 -1 -14 -1h-11zM422 487h-27q-13 0 -27 1q27 -9 51.5 -24t39.5 -38q1 -2 2 -3t2 -3l28 -27q5 -5 8.5 -9t6.5 -9l-1 1q11 -12 20 -31.5
t15 -43.5t9.5 -51.5t3.5 -55.5q0 -52 -12.5 -101t-41.5 -78q-35 -39 -75.5 -55t-84.5 -16q-29 0 -57.5 5.5t-56.5 15.5q-23 10 -41.5 21.5t-32.5 25.5l-26 25q-31 20 -49 51h1q-14 19 -20 42.5t-6 50.5q0 33 10 54t25 33t32.5 16.5t31.5 4.5q13 0 16 -1q-22 11 -36 25
l-33 33q-25 15 -37 40q-9 17 -14 51.5t-5 88.5v26t1 28q3 52 24.5 82t50.5 45t59.5 19t50.5 4h27q8 1 22.5 1.5t34.5 0.5q25 0 54 -2.5t56 -9.5t49 -19.5t34 -33.5l35 -34q23 -23 23 -57q0 -5 -0.5 -9t-1.5 -9q-7 -38 -41.5 -54.5t-96.5 -16.5zM444 70q29 30 41 80t11 103
t-13.5 99t-32.5 69q-16 25 -44.5 40.5t-59 23.5t-56.5 10.5t-38 1.5q-2 3 -4.5 12.5t-1 19t11 16t31.5 4.5q98 -11 152 1.5t62 58.5q6 35 -9.5 56.5t-43 34t-61 17t-64 5.5t-52 -0.5t-25.5 -1.5q-3 0 -18.5 0.5t-36.5 -1.5t-45 -9t-44.5 -23t-35 -41.5t-16.5 -65.5
q-4 -77 1.5 -123.5t15.5 -66.5q18 -33 59 -48.5t100 -10.5q18 1 38.5 -13t31 -34.5t3.5 -41t-44 -32.5q-18 -6 -29 0t-18.5 17t-15.5 24t-20 23q-5 4 -23.5 5t-38.5 -7.5t-35.5 -29.5t-15.5 -61q0 -53 24 -87q14 -23 37.5 -40.5t55.5 -31.5q36 -13 71.5 -18.5t69 -1
t65.5 20.5t60 47z" />
    <glyph glyph-name="six" unicode="6" horiz-adv-x="583" 
d="M294 284l34 -36v1zM292 284l37 -38v1zM294 184q2 1 3 1q2 0 4 1q30 22 30 46v3q-15 -4 -26 -18t-11 -31v-2zM150 33q-20 14 -39 35.5t-36 50.5v-1q-19 32 -27 66t-8 69q0 61 23 122t59 117t79 106.5t83 91.5q14 14 30.5 19t35.5 5q26 0 53.5 -10t40.5 -17h-3
q16 -13 31 -34l28 -28q16 -16 29 -39.5t13 -43.5v-7q-2 -12 -12 -27t-24 -31t-30.5 -32.5t-32.5 -30.5q19 -11 35.5 -26.5t29.5 -34.5l25 -24q24 -24 39 -54t17 -64v-17q0 -112 -50.5 -171t-160.5 -80q-10 -2 -34 -2q-16 0 -36.5 2.5t-43 10t-46 21t-45.5 35.5zM340 243
q3 -16 -3 -32.5t-23 -28.5q-3 -2 -11.5 -5.5t-19 -2.5t-22 10t-20.5 32q-6 14 -3.5 27.5t9.5 25t18.5 18.5t23.5 7q42 1 51 -51zM338 429q13 9 36 28.5t46.5 42.5t42.5 46t22 40q2 12 -3 27t-14 29t-20 25.5t-20 16.5q-8 5 -25 11t-37 8t-40 -1.5t-35 -18.5l-69 -76
t-68 -86.5t-57.5 -95t-37.5 -100t-7 -102t32 -100.5q30 -53 68.5 -79.5t74.5 -36.5t64 -9.5t36 2.5q112 21 160.5 82t44.5 179q-2 36 -20 68.5t-45.5 56t-61.5 35.5t-67 8z" />
    <glyph glyph-name="seven" unicode="7" horiz-adv-x="616" 
d="M361 702q66 2 107.5 -18t64.5 -54.5t29.5 -77.5t1.5 -87t-17.5 -83.5t-28.5 -66.5l-15 -31t-21 -40.5t-33 -55t-50 -74.5h1q-25 -39 -48.5 -65.5t-49 -38.5t-54 -9.5t-62.5 21.5q-32 20 -41.5 49t-3.5 64t25.5 74t45.5 78q8 15 12.5 22l11.5 18l19.5 31t35.5 60
q6 19 9.5 26.5t1.5 10t-10 3.5t-24 7q-17 1 -36.5 0.5t-37.5 -2t-31 -3t-17 -0.5q-27 7 -46.5 23t-31.5 37.5t-16 45.5t0.5 46.5t18.5 42t37 30.5q22 11 49.5 14.5t59.5 3.5t68.5 -1.5t75.5 0.5zM361 712q-13 -1 -25 -1h-24h-24q-11 0 -22 1q-13 1 -26 1h-24
q-34 0 -61.5 -3.5t-50.5 -15.5q-32 -15 -48 -44.5t-16 -62.5q0 -35 16 -67.5t48 -52.5l30 -30q25 -25 60 -34h5q5 0 12.5 0.5t17.5 1.5t21 1.5t23 1.5l-30.5 -50.5t-16.5 -26.5h1l-3 -3l-9 -15l-12 -21q-33 -50 -53.5 -97t-20.5 -87q0 -29 11.5 -53.5t39.5 -41.5l31 -31
q8 -8 21 -16q40 -23 77 -23q42 0 78 32.5t76 95.5l38.5 58t28 46.5t19.5 36.5l15 30q3 5 5 9.5t4 9.5h1q20 33 34.5 85.5t14.5 106.5q0 45 -12.5 85.5t-41.5 69.5l-28 28q-23 34 -64 55t-104 21h-12z" />
    <glyph glyph-name="eight" unicode="8" horiz-adv-x="638" 
d="M338 473q-2 -1 -2.5 -2t-2.5 -3q2 1 2.5 2t2.5 3zM333 215q-22 -7 -25 -26q17 6 25 26zM623 464q0 -6 -3 -20t-11 -32.5t-22 -39.5t-38 -40q10 -11 18 -21l31 -31q25 -25 35 -57.5t11 -79.5v-4q0 -30 -16 -63.5t-42 -62t-60 -48t-70 -21.5q-48 -3 -94 -3
q-65 0 -119.5 11.5t-91.5 48.5l-26 26q-22 14 -38 33.5t-27 48.5q-20 53 -20 100q0 30 8.5 54.5t22 45t30.5 36.5t34 30l-27 29q-30 22 -44 52.5t-14 60.5q0 15 3.5 30.5t11.5 27.5h-1q21 34 44 59.5t51.5 43t65.5 26t87 8.5h19q10 0 21 -1q147 -9 197 -86l27 -27l-3 3l6 -5
q44 -44 44 -117v-15zM313 543q11 -1 25 -9t16 -25q1 -7 0.5 -17t-5 -19t-14 -15.5t-25.5 -6.5q-46 2 -43 38q1 20 14 37.5t32 16.5zM348 233q-2 -23 -16.5 -39.5t-34.5 -15.5q-23 2 -31.5 12t-12.5 24q-7 28 7.5 45.5t48.5 15.5q7 0 14 -4t13 -10t9.5 -13.5t2.5 -14.5z
M587 193q-1 34 -6.5 60.5t-18.5 47.5t-35 38t-55 33q31 19 49.5 41.5t28 42.5t13 36t3.5 22q11 174 -214 187q-59 4 -101 -2.5t-74.5 -23t-57 -43.5t-46.5 -63q-12 -20 -13 -47.5t10 -54.5t34.5 -49t61.5 -30l-50.5 -42.5t-44.5 -54t-21 -74.5t20 -104q18 -46 51.5 -70
t78 -34.5t97.5 -10.5t109 3q35 2 68 21.5t58.5 47.5t40.5 61t14 62z" />
    <glyph glyph-name="nine" unicode="9" horiz-adv-x="583" 
d="M298 424q14 3 25.5 16.5t11.5 30.5v4q-5 -1 -8.5 -2.5t-5.5 -2.5h1q-24 -17 -24 -42v-4zM89 123q2 12 12 27t24 31.5t31 33l33 31.5q-11 7 -21 14.5t-18 17.5l-26 25q-35 25 -58 62.5t-25 80.5v20q0 112 50.5 171t160.5 81q10 2 35 2q18 0 43 -3.5t52.5 -14.5t55 -31
t51.5 -53l21 -21q12 -12 23 -26.5t21 -31.5q19 -33 27 -66.5t8 -67.5q0 -61 -23 -121.5t-58 -116.5t-78 -106t-82 -91q-13 -13 -29.5 -18t-34.5 -5q-25 0 -47.5 7t-33.5 13q-11 5 -19 15l-32 32q-10 5 -21 16.5t-20.5 26t-15.5 30t-6 28.5v8zM243 465q-4 16 2 32.5t23 28.5
q3 2 11.5 5.5t19 2.5t22 -10t20.5 -32q6 -14 4 -27.5t-9 -25t-18.5 -18.5t-23.5 -7q-42 -1 -51 51zM245 279q-13 -9 -36 -28.5t-46.5 -43t-42 -46.5t-21.5 -40q-2 -12 3 -27t14 -29t20 -25.5t20 -16.5t26 -10.5t37 -8t40 1.5t34 19q33 34 69 75.5t68 87.5t57 95t36.5 100
t7 102.5t-32.5 100.5q-20 35 -44.5 58t-49.5 37t-49.5 20.5t-45 8t-35 0.5t-20.5 -2q-111 -22 -159.5 -83t-43.5 -179q2 -36 20 -68.5t45.5 -56t61.5 -35.5t67 -7z" />
    <glyph glyph-name="colon" unicode=":" horiz-adv-x="302" 
d="M53 484q0 21 7.5 39t21 31.5t31 21.5t38.5 8t39 -8t31.5 -21.5t21.5 -31.5t8 -39q0 -42 -29 -70t-71 -28t-70 28t-28 70zM54 147q0 21 7.5 39t21 31.5t31 21.5t38.5 8t39 -8t31.5 -21.5t21.5 -31.5t8 -39q0 -42 -29 -70t-71 -28t-70 28t-28 70zM44 147q0 -29 13 -53.5
t36 -38.5l34 -33q30 -30 75 -30q22 0 41.5 8t34 22.5t23 33.5t8.5 41q0 23 -8.5 42.5t-22.5 33.5l-33 32q-14 23 -39 37.5t-54 14.5q-23 0 -42.5 -8.5t-34 -23.5t-23 -35t-8.5 -43zM43 484q0 -29 13 -53.5t36 -38.5l34 -33q30 -30 75 -30q22 0 41.5 8t34 22.5t23 33.5
t8.5 41q0 23 -8.5 42.5t-22.5 33.5l-33 32q-14 23 -39 37.5t-54 14.5q-23 0 -42.5 -8.5t-34 -23.5t-23 -35t-8.5 -43z" />
    <glyph glyph-name="semicolon" unicode=";" horiz-adv-x="298" 
d="M55 212q8 37 39 56t68 11q18 -4 36.5 -17t31 -32t16 -41t-8.5 -43q-32 -58 -64.5 -95t-53 -46t-23 14t25.5 84q-38 9 -57.5 40.5t-9.5 68.5zM50 473q0 21 7.5 39t21 31.5t31 21.5t38.5 8t39 -8t31.5 -21.5t21.5 -31.5t8 -39q0 -42 -29 -70t-71 -28t-70 28t-28 70zM42 189
q0 -23 11 -44.5t31 -35.5l20 -20q-10 -23 -14 -40t-4 -28q0 -24 17 -27l43 -43q5 -5 13 -5q20 0 58 39t76 108q10 17 10 37t-9.5 39.5t-24.5 34.5l-32 31q-14 20 -33 34t-38 19v1q-5 2 -12 2h-13q-34 0 -61 -20t-35 -55q-3 -12 -3 -27zM40 473q0 -29 13 -53.5t36 -38.5
l34 -33q30 -30 75 -30q22 0 41.5 8t34 22.5t23 33.5t8.5 41q0 23 -8.5 42.5t-22.5 33.5l-33 32q-14 23 -39 37.5t-54 14.5q-23 0 -42.5 -8.5t-34 -23.5t-23 -35t-8.5 -43z" />
    <glyph glyph-name="question" unicode="?" horiz-adv-x="525" 
d="M97 50q0 21 7.5 39t21 31.5t31 21.5t38.5 8t39 -8t31.5 -21.5t21.5 -31.5t8 -39q0 -42 -29 -70t-71 -28t-70 28t-28 70zM433 697q29 -30 37 -70t0.5 -81t-29.5 -79.5t-53 -65.5q-12 -10 -27 -24t-29 -28.5t-23.5 -27.5t-10.5 -21q3 -25 -15 -43t-45.5 -26.5t-58 -7
t-53 14.5t-31 38t8.5 64q20 19 42.5 43t42.5 49.5t35.5 50t22.5 46t3 38t-22 24.5t-25 -2t-11 -26.5l-8.5 -35t-16.5 -28.5q-5 -4 -24 -6t-39.5 5.5t-37 27.5t-16.5 60q0 52 24 87q14 23 37.5 40.5t55.5 31.5q36 13 71.5 18.5t69 1t65.5 -20.5t60 -47zM488 652q-2 1 -4 3
l-6 7q0 -2 1 -2l-8 7q2 -2 3.5 -2.5t3.5 -2.5l-20 19q-8 13 -18 23q-36 40 -76.5 56t-85.5 16q-54 0 -115 -22q-34 -15 -58.5 -33t-39.5 -42h1q-14 -19 -20 -42.5t-6 -50.5q0 -38 13 -59t32 -32l34 -33q14 -14 30 -20t31 -6q-20 -25 -42 -48l-42 -42q-8 -16 -10.5 -28.5
t-2.5 -23.5q0 -24 10.5 -40t28.5 -26l34 -34q14 -14 36 -21t46 -7q21 0 42 5.5t37.5 15.5t27 24.5t10.5 32.5v6q1 7 10.5 19t23 26t28.5 27.5l26 23.5q40 35 64 86.5t24 104.5q0 32 -10 62t-33 53zM87 50q0 -29 13 -53t36 -38l34 -34q30 -30 75 -30q22 0 41.5 8t34 22.5
t23 33.5t8.5 41q0 23 -8.5 42.5t-22.5 33.5l-33 32q-14 23 -39 37.5t-54 14.5q-23 0 -42.5 -8.5t-34 -23.5t-23 -35t-8.5 -43zM471 667l-6 7q2 -2 3 -3.5t3 -3.5z" />
    <glyph glyph-name="A" unicode="A" horiz-adv-x="795" 
d="M405 463l34 -36v1zM403 463l37 -38v1zM405 363q2 1 3 1q2 0 4 1q30 22 30 46v3q-15 -4 -26 -18t-11 -31v-2zM107 12q-28 17 -44.5 49t-19.5 82v8q-1 14 -1.5 25.5t-0.5 23.5q0 38 7 77t27 96q14 38 34.5 74.5t48.5 78.5q16 25 41.5 55t57 57t68 46.5t75.5 25.5q5 1 10 1
h11q28 0 55.5 -10t53 -27t48 -39t42.5 -47l5 -4l5 -5q21 -21 39.5 -45t32.5 -48q10 -18 27 -54.5t33.5 -80.5t28 -90.5t11.5 -83.5q0 -33 -1.5 -66.5t-11 -63.5t-29.5 -54t-57 -36q-14 -5 -31 -7t-34 -2q-35 0 -69 9.5t-53 27.5l-34 34q-18 9 -27 24h1q-9 14 -14.5 39
t-11.5 60q-5 -5 -8.5 -11.5t-4.5 -10.5q-1 -5 -1.5 -10t-1.5 -10l-4.5 -34.5t-10.5 -38.5q-17 -45 -51.5 -65t-82.5 -20q-16 0 -33 1.5t-34 6.5q-37 9 -61 33zM451 422q3 -16 -3 -32.5t-23 -28.5q-3 -2 -11.5 -5.5t-19 -2.5t-22 10t-20.5 32q-6 14 -3.5 27.5t9.5 25
t18.5 18.5t23.5 7q42 1 51 -51zM745 227q0 37 -11.5 82.5t-27.5 89t-33 79.5t-27 54q-20 33 -47 65.5t-59 57t-67 37.5t-72 8q-38 -6 -73 -25t-65.5 -45.5t-55 -55.5t-40.5 -54q-28 -43 -48.5 -78.5t-33.5 -71.5q-14 -39 -21.5 -68.5t-10.5 -55t-2.5 -50t2.5 -53.5
q4 -61 29.5 -93.5t67.5 -42.5q69 -17 119.5 -0.5t72.5 73.5q11 28 13 53t5 39q2 9 13 22t23 13q14 0 25.5 -15t16.5 -39q7 -38 12.5 -65t13.5 -39q10 -15 32 -25.5t49 -15t55 -3.5t51 9q35 12 54 34.5t28 51.5t10.5 62t1.5 65z" />
    <glyph glyph-name="B" unicode="B" horiz-adv-x="655" 
d="M333 455q-7 -4 -12 -13q8 5 12 13zM349 214q-21 -8 -26 -26q18 6 26 26zM620 479q0 -6 -2 -19.5t-8 -32t-18.5 -40t-33.5 -41.5q7 -6 12.5 -12.5t10.5 -13.5l32 -32q23 -23 33.5 -53.5t14.5 -73.5v-10q0 -30 -14.5 -63.5t-38.5 -62.5t-56 -50t-66 -25q-35 -5 -67.5 -7.5
t-64.5 -2.5q-56 0 -102.5 12.5t-81.5 47.5l-28 28q-35 24 -58 66q-15 27 -23 50.5t-12 47.5t-5 51t-1 61v26v15q0 9 -1 20q-1 15 -1.5 32t-0.5 36q0 35 3.5 68t14.5 56q18 40 41.5 69t56 48t76.5 28.5t105 9.5q153 0 208 -79l31 -31q44 -44 44 -123zM303 426q-46 0 -46 36
q0 20 12 38t31 18q11 0 23 -2t23 -22v-1q9 -63 -43 -67zM363 235q0 -23 -14 -40.5t-34 -17.5q-23 0 -32 9.5t-14 23.5q-8 27 5 45.5t47 18.5q14 0 28 -12t14 -27zM604 210q-3 34 -10.5 59.5t-22 46t-37 36t-56.5 29.5q29 21 46 44.5t25.5 44.5t11 37t2.5 22q0 173 -226 173
q-59 0 -101.5 -9t-74 -27.5t-54 -46.5t-40.5 -66q-10 -21 -13.5 -52.5t-3.5 -63.5t1.5 -61.5t1.5 -45.5q0 -40 0.5 -70.5t4 -56.5t11.5 -51t24 -54q24 -43 59 -65t79.5 -30t96 -5.5t107.5 9.5q35 4 66.5 25.5t55.5 51.5t37 63.5t10 62.5z" />
    <glyph glyph-name="C" unicode="C" horiz-adv-x="675" 
d="M444 351q-28 0 -50.5 -21.5t-30.5 -50.5q11 4 24.5 9.5l27.5 11.5q3 2 6.5 2.5t6.5 2.5q20 8 38 14.5t31 8.5l-7 4l-28 13t-18 6zM675 428q0 -21 -10 -40t-25 -34.5t-33.5 -26.5t-35.5 -15q30 -17 46 -45l29 -28q16 -16 25.5 -37.5t9.5 -47.5v-3q0 -104 -103 -158l1 -1
q-17 -11 -64 -27t-114 -20l4 -4q-68 7 -115.5 22t-88.5 56l-22 21q-23 17 -44 41t-44 59q-26 40 -38.5 86t-12.5 97q0 65 24.5 131t77.5 128v-1q25 31 50 54t52.5 38.5t61 23t77.5 7.5q23 0 48 -2t54 -6q34 -6 61 -25.5t47 -46.5l28 -27q28 -27 43 -63.5t15 -72.5
q0 -9 -1 -17t-3 -16zM335 1q36 1 66.5 6t55.5 12t42 15t26 14q100 54 99 156q0 25 -9.5 46t-25.5 36.5t-38 24t-47 8.5q-11 0 -34 -8.5t-48.5 -19t-48.5 -19t-33 -8.5q-36 0 -36 44q0 18 7.5 36t19.5 32t28.5 23t34.5 9q5 0 17.5 -5.5l27 -12.5l28 -13t19.5 -7q15 -7 38 0
t44 23t35.5 38.5t14.5 47.5q7 30 0 64t-25 63.5t-46 51.5t-63 28q-71 10 -121 7.5t-88 -17t-68.5 -41.5t-62.5 -66q-49 -57 -71.5 -120t-22.5 -126q0 -49 12 -93.5t38 -83.5q28 -44 54 -70.5t53 -42t58 -22.5t71 -11z" />
    <glyph glyph-name="D" unicode="D" horiz-adv-x="688" 
d="M344 288q29 8 44 29.5t15 66.5v12h-1v5q0 7 -3 15q-15 5 -25 5q-17 0 -28 -11q0 -14 -0.5 -28.5t-0.5 -29.5q-1 -17 -1 -33v-30v-1zM42 591q26 27 59 51t73 45q45 23 83.5 26.5t69.5 3.5h9q39 0 76 -10.5t69.5 -28.5t59.5 -42t48 -51l17 -17q56 -56 74 -117
q6 -19 10.5 -48t4.5 -74q0 -25 -1.5 -54.5t-6.5 -65.5q-7 -59 -29 -102.5t-52.5 -74t-66 -49t-69.5 -25.5q-35 -8 -70 -10.5t-64 -2.5q-25 0 -44 1t-29 2q-3 0 -5 0.5t-3 0.5q-13 0 -31.5 2.5t-38 8.5t-38 15.5t-31.5 23.5l-33 33q-17 10 -27 24q-2 27 -4.5 69.5t-4.5 92.5
t-3 106t-1 110q0 74 -3 152zM412 406q3 -39 -3.5 -64.5t-20.5 -40.5t-36 -21.5t-52 -6.5q-8 0 -10.5 19t-2.5 47q0 29 1 62t1 61q13 16 34.5 15.5t41.5 -11.5t34 -29.5t13 -37.5v7zM50 585q3 -78 3 -151q0 -54 1 -109t3 -105t4.5 -92t4.5 -69q12 -14 30 -24t37.5 -16.5
t38.5 -9.5t33 -3q3 0 23 -1.5t49.5 -2t66.5 2t75 10.5q33 7 67.5 24.5t64 47.5t51 73t28.5 100q6 50 7.5 88t-0.5 66.5t-6 49t-8 35.5q-12 38 -39.5 76t-66.5 68t-87.5 48t-102.5 16q-31 0 -68.5 -3.5t-80.5 -25.5q-79 -41 -128 -93z" />
    <glyph glyph-name="E" unicode="E" horiz-adv-x="660" 
d="M665 266q-2 -23 -11.5 -38.5t-24 -25.5t-33.5 -16t-41 -9q16 -9 28 -19.5t19 -22.5l35 -34q21 -21 21 -44q0 -8 -1 -11q-2 -29 -11.5 -47t-25.5 -28.5t-38 -14.5t-49 -6q-31 -5 -67 -8t-78 -3q-38 0 -80 2.5t-87 9.5q-37 6 -62 31l-32 31q-30 19 -47 53t-25.5 72t-11 74
t-2.5 60v33q0 35 1.5 72.5t6.5 80.5q5 48 12.5 86.5t24.5 69t46 54t76 41.5q11 4 30 6.5t43 4t51.5 2t55.5 0.5q59 0 108 -18.5t78 -62.5l29 -28q33 -33 45 -89v-8q0 -37 -29 -55t-70 -29q17 -8 31.5 -19.5t23.5 -26.5l35 -34q27 -27 27 -68v-9q0 -4 -1 -9zM600 97
q4 21 -8.5 38.5t-34.5 31.5t-50 24.5t-53.5 16.5t-44.5 8.5t-25 1.5q38 9 76.5 12t70 10.5t53 24t24.5 52.5q6 46 -17.5 72t-61.5 39.5t-81.5 18.5l-76.5 9q33 12 72.5 20t73.5 19t55.5 28.5t18.5 49.5q-8 38 -26.5 64.5t-45.5 43t-60.5 24t-70.5 7.5q-27 0 -54 -0.5
t-50.5 -2t-42 -4t-29.5 -6.5q-45 -17 -72.5 -39.5t-44 -52t-24 -66.5t-12.5 -84q-6 -54 -7.5 -99.5t-0.5 -85.5q0 -26 3.5 -68.5t15.5 -84t36 -73.5t66 -38q96 -14 173 -12.5t137 11.5q26 2 47 6t36 13.5t24 26t11 44.5z" />
    <glyph glyph-name="F" unicode="F" horiz-adv-x="685" 
d="M691 510q-2 -15 -6 -28.5t-14.5 -25t-29.5 -20t-52 -13.5q13 -8 23 -17.5t16 -20.5l33 -33q23 -23 23 -53q0 -11 -1 -16q-2 -19 -7.5 -32.5t-16.5 -24.5t-27.5 -20t-40.5 -19q-26 -11 -51 -16t-50 -5q-39 0 -71 7q8 -31 11 -51t3 -29v-5q-3 -44 -21 -71.5t-43 -42.5
t-53.5 -20.5t-52.5 -5.5q-40 0 -54 7q-19 8 -37 26l-30 29q-33 22 -54 63t-35 107q-4 18 -6 34.5t-3.5 34.5t-2 40.5t-0.5 52.5v128q3 30 12.5 59.5t25.5 56t37 49t45 38.5h-1q50 29 107.5 42.5t114.5 13.5q41 0 79 -6.5t71 -18.5q33 -14 58.5 -30t39.5 -39l31 -31
q15 -15 23 -33.5t8 -44.5q0 -4 -0.5 -8t-0.5 -8zM626 334q7 36 -16.5 59.5t-63.5 38.5t-89 24l-94 17q93 -2 146.5 3.5t80.5 17.5t34.5 29t9.5 38q3 28 -3.5 48.5t-20.5 36t-34.5 27t-46.5 22.5q-36 13 -81.5 19.5t-93 4t-94 -14.5t-84.5 -34q-51 -29 -85 -84t-40 -117
q0 -67 -0.5 -110.5t0.5 -74.5t3.5 -54t8.5 -48q15 -70 38 -111.5t61 -59.5q6 -3 23.5 -5t40 -1t48 7.5t47 21.5t37 40.5t18.5 64.5q1 6 -2.5 30t-14.5 64q45 -10 89 -10q45 0 90 20q22 10 38 18.5t26.5 18.5t16 23t7.5 31z" />
    <glyph glyph-name="G" unicode="G" horiz-adv-x="825" 
d="M330 284q0 -11 1 -23t6 -23q9 -5 20 -8t25 -5l20 7.5t13 5.5l-4 4l-2 2h-1q-6 4 -13.5 11t-14.5 16t-12 19.5t-5 21.5q0 10 5 21t13 20.5t17 16.5t18 10q32 10 72 17q-20 5 -36 8.5t-28 3.5q-21 0 -38 -9t-33 -30q-10 -16 -16.5 -38t-6.5 -48zM148 52q-31 22 -54 52
t-35 70q-18 61 -18 132q0 69 17 135.5t50 120.5q71 108 195 151q4 1 17.5 3t32.5 4t41 3t44 1q20 0 38 -1t30 -4q38 -9 75 -29t60 -54l28 -28q19 -19 30 -43.5t11 -56.5q0 -29 -25 -64q-7 -11 -17.5 -19.5t-23.5 -15.5q45 -3 79.5 -16t50.5 -41l36 -35q16 -16 20 -37
q1 -4 1 -13q0 -18 -10.5 -33.5t-27 -27t-37 -19t-40.5 -9.5v-16q0 -20 -1.5 -42t-6.5 -36q-12 -36 -40.5 -63t-67 -45t-84 -27t-93.5 -9q-34 0 -69 5t-68 16t-63 28.5t-54 41.5zM413 253q13 -6 14.5 -11t-4 -9.5t-16 -9t-22.5 -8.5q-52 5 -77.5 30.5t-32 58t1 66t20.5 54.5
q15 20 31 30t35.5 11.5t44.5 -3.5t57 -15q16 -7 40 -6t48 8.5t44.5 20t31.5 28.5q24 34 24 60q0 33 -13 58.5t-34.5 44t-48.5 30.5t-54 18q-20 4 -50.5 4.5t-61 -1t-55 -4.5t-30.5 -5q-119 -41 -189 -147q-24 -40 -39.5 -87t-22 -96.5t-3.5 -99.5t17 -96q15 -49 47 -83
t74 -55.5t89.5 -31.5t93.5 -10t91 8.5t82.5 26t65 43.5t39.5 61q3 10 5 23t2.5 26.5t0.5 26.5v23q21 1 43 8.5t39.5 20t26.5 29t5 35.5q-6 26 -27 41.5t-52 22.5t-68 8t-74.5 -3t-72 -11t-59.5 -15q-8 -3 -16 -9.5t-15 -14.5t-11.5 -17t-4.5 -18q0 -18 15 -35t25 -24z" />
    <glyph glyph-name="H" unicode="H" horiz-adv-x="726" 
d="M406 147v21q0 12 -2 24q-12 -6 -15.5 -18t-3.5 -28q0 -6 0.5 -13t0.5 -13q1 -8 1 -17v-16q-1 -24 -6 -48.5t-15 -45t-26 -33t-40 -12.5h-2q-8 -1 -30.5 -2t-48.5 -1q-16 0 -30 0.5t-25 2.5q-20 3 -33 16l-37 36q-15 7 -24 21.5t-13.5 35t-6.5 45.5t-3 54q-1 12 -1.5 25
t-1.5 27q-3 39 -3.5 81t-0.5 84q0 11 0.5 22t0.5 22v123q0 37 9.5 68t28.5 53.5t47.5 35.5t67.5 13h10q34 -1 60 -6.5t38 -30.5l37 -37q17 -17 18 -52v-8q0 -11 0.5 -29t5.5 -36h2q17 0 30.5 29.5t13.5 100.5q0 24 8 37.5t23 20.5t35.5 8.5t45.5 2.5h14q44 0 75 -13t48 -42
l29 -30h-1v1l4 -3q34 -34 34 -104q0 -6 0.5 -23.5t1 -42.5t1 -56t1.5 -65q1 -42 1.5 -85.5t1.5 -81.5t1.5 -66.5t0.5 -40.5q0 -15 -2.5 -33.5t-8 -35t-14.5 -28t-22 -12.5q-3 0 -4 -1h-1q-9 -2 -25 -3.5t-45 -1.5h-15q-32 1 -56 3.5t-41 19.5l-36 36q-22 11 -36 43t-21 101
v1zM416 147q5 -56 15.5 -86t26.5 -43t38 -15t50 -3q41 -1 60.5 1.5t29.5 4.5q11 0 19 11t12.5 26.5t6.5 33t2 31.5q0 15 -0.5 52t-1.5 85.5t-2.5 101.5t-2.5 99t-1.5 80t-0.5 43q0 75 -38 104.5t-108 26.5q-23 -1 -41.5 -2.5t-32 -7t-21 -17t-7.5 -32.5q0 -78 -16.5 -110
t-39.5 -30q-25 1 -38 19t-18.5 40.5t-6 44t-0.5 29.5q-1 22 -8.5 35t-20.5 20t-30 9t-37 2q-40 2 -69 -10t-48 -34.5t-28 -54.5t-8 -69q0 -36 -0.5 -76.5t-0.5 -82.5t0.5 -83.5t3.5 -80.5q3 -41 4.5 -76t6.5 -62t16 -44.5t34 -21.5q17 -3 40 -3.5t44 0.5t36 2l15 1
q22 0 37 12t24 31t13.5 42.5t5.5 46.5q0 21 -1.5 40.5t0.5 35t9 26t25 14.5q19 4 29.5 -6t15.5 -26.5t6.5 -37t1.5 -36.5z" />
    <glyph glyph-name="I" unicode="I" horiz-adv-x="412" 
d="M96 9q-18 10 -30 27t-16 44l-2 6l-2.5 18t-2.5 38t-2 75t-1 128v181q1 13 3.5 29.5t5.5 33t6.5 31.5t8.5 27q18 48 50.5 62.5t84.5 14.5q11 0 23 -0.5t26 -1.5h6q27 -2 46 -14t33 -33l31 -31h-1l2 -1q17 -17 27.5 -42.5t16.5 -57t8 -66t2 -69.5q0 -11 -0.5 -22t-0.5 -22
q-1 -17 -1 -39q0 -21 -1 -45q-1 -49 -3 -104t-6 -104q-2 -33 -8.5 -54t-18.5 -34.5t-30 -22t-42 -15.5q-16 -1 -32.5 -1.5t-32.5 -0.5q-34 0 -64.5 6.5t-50.5 26.5zM361 414q1 50 -1 102.5t-12.5 95t-32.5 70.5t-61 30q-36 2 -65 2t-51 -6.5t-38 -21.5t-26 -42
q-9 -24 -15.5 -58.5t-8.5 -60.5v-180q0 -92 1 -141.5t2.5 -73.5t3.5 -32t3 -17q5 -34 24.5 -51t47 -23.5t60.5 -6t64 2.5q23 7 40 15t28 21t17.5 33t8.5 51q3 36 4.5 76.5t2.5 79.5t2 74t2 61z" />
    <glyph glyph-name="J" unicode="J" horiz-adv-x="719" 
d="M133 64q-41 30 -67 75.5t-26 111.5q0 33 9.5 63t29 52.5t50 36t71.5 13.5h14q23 -2 41 -12t34 -33l34 -33q8 -8 14 -17.5t13 -22.5q6 -12 7.5 -18t4.5 -14q0 -3 2 -7q14 1 24.5 12t10.5 37v2q0 12 -6 26.5t-14 31.5l-3 6l-2 4l-2 4q-11 23 -22.5 51t-16.5 63v12
q0 32 10 70.5t29.5 72.5t48 56.5t64.5 22.5q56 0 95 -19t62 -54l28 -28q54 -54 54 -167v-33v-39t1 -39q1 -18 1 -36v-36q0 -37 -2 -73t-8 -71q-15 -86 -73 -134t-177 -58q-5 -1 -24 -1q-24 0 -60 4t-76 15t-79.5 30.5t-70.5 50.5zM343 252q-10 0 -17 10.5t-12.5 25.5t-10 31
t-9.5 26q-17 33 -36 46t-44 15q-42 3 -73 -9t-51.5 -33.5t-30 -50.5t-9.5 -62q0 -59 23 -101t58.5 -70.5t79 -45.5t84 -25t73.5 -9.5t47 0.5q116 10 173 56.5t71 129.5q7 40 8.5 81t1 81.5t-1.5 81.5t0 82q0 100 -44 154t-138 54q-35 0 -62.5 -23.5t-45.5 -58t-27 -73
t-7 -68.5q4 -33 14.5 -60t22 -49.5t20.5 -42t9 -35.5q0 -20 -6 -33.5t-16 -20t-21.5 -7.5t-22.5 3z" />
    <glyph glyph-name="K" unicode="K" horiz-adv-x="778" 
d="M169 -27l-2 2l-39 38q-1 1 -2 1.5t-2 1.5q-2 1 -9 8t-15 17.5t-16.5 24t-12.5 28.5q-18 57 -24.5 118t-6.5 124q0 34 1 67.5t3 65.5q1 45 3 87q1 30 9 57t31 50q13 13 25 21.5t25 13.5t28 8t34 5q8 1 15 1.5t15 0.5q29 0 53 -12t46 -43l29 -29q19 -19 35 -51q2 -5 3 -10
t3 -13q3 4 5.5 7t5.5 7l41.5 51t45 46.5t48 33.5t51.5 13q38 0 68 -15.5t47 -42.5l33 -32q32 -32 32 -82q-5 -74 -40.5 -122t-85.5 -72l10 -10.5l10 -11.5l29 -28q32 -32 53.5 -75.5t29.5 -80.5q4 -17 4 -39q0 -32 -11 -58.5t-31 -46.5t-48.5 -31t-63.5 -11h-9q-35 2 -68 21
t-62 48l-21 20q-23 18 -44 41q-6 -30 -21.5 -55.5t-38 -43.5t-50 -28.5t-57.5 -10.5q-23 0 -45.5 6t-45.5 20zM718 591q0 51 -34.5 81.5t-88.5 30.5q-35 0 -67 -23t-61.5 -56t-56.5 -68.5t-52 -60.5q-3 19 -5.5 39.5t-5.5 38.5l-5.5 32t-5.5 20q-14 27 -29 43.5t-31.5 25
t-35.5 9.5t-40 -2q-36 -4 -59.5 -13t-46.5 -32q-20 -20 -28 -46t-9 -54q-1 -54 -4 -112t-2.5 -116.5t6.5 -117t24 -113.5q9 -28 24 -47t18 -21q45 -27 91 -24.5t82 25t58 61.5t20 87q14 -27 35.5 -56t47.5 -53t55.5 -40t59.5 -17q41 -2 72.5 11.5t52 37.5t28 57t-0.5 71
q-6 29 -21 63.5t-37.5 64t-51.5 49.5t-62 21q31 9 60 25.5t51.5 42t37 59t17.5 77.5z" />
    <glyph glyph-name="L" unicode="L" horiz-adv-x="636" 
d="M271 -1q-66 -5 -107.5 5t-66 31t-34.5 50t-12 62t0 67.5t2 65.5q0 15 -0.5 33t0 43.5t2 61.5t6.5 89v-1q8 188 162 192q75 2 116.5 -41.5t35.5 -137.5q0 -17 -1 -24.5t-3 -19t-3 -34t-1 -68.5l6 -30.5t6.5 -16.5t13.5 -9l26 -9q32 -2 51 -4t27 -4q27 -6 45.5 -25t29 -45
t13 -56.5t-3.5 -59t-20.5 -52t-37.5 -36.5q-21 -12 -48.5 -16.5t-59.5 -6t-69 -1.5q-36 0 -75 -3zM424 325v21q0 42 2 59.5t4 27.5q2 8 2 15v21q0 5 0.5 11t0.5 11q0 83 -42 125l-31 31q-20 31 -53 46t-77 15h-7q-82 -2 -124.5 -52t-47.5 -144q-5 -63 -7 -103.5t-2 -69.5
q0 -8 0.5 -14.5t0.5 -12.5v-32v-24t-1 -25t-1.5 -26t-0.5 -27q0 -50 12 -93t53 -69l30 -29q21 -21 56.5 -33.5t91.5 -12.5h18t20 1h1q25 2 48 2.5t45 0.5q49 1 89.5 4.5t71.5 20.5q33 18 49.5 56.5t16.5 80.5q0 35 -11 67.5t-33 54.5l-30 29q-12 20 -29 33.5t-40 18.5
q-8 2 -25.5 4t-47.5 4q0 2 -0.5 3.5t-1.5 3.5z" />
    <glyph glyph-name="M" unicode="M" horiz-adv-x="886" 
d="M799 629l-2 2zM388 625q17 -18 33 -42t33 -55l35 60t45 61.5t54 48t62 19.5q2 0 3 -0.5t3 -0.5h6q42 -6 67 -19t40 -38l33 -32q13 -13 22 -32t15.5 -45.5t11.5 -60.5l11 -78q5 -40 12 -87.5t17 -105.5v-1q1 -11 1.5 -20.5t0.5 -20.5q0 -44 -9 -85.5t-30 -73.5t-54.5 -52
t-81.5 -21h-4q-23 0 -41.5 8.5t-33.5 22.5l-32 32q-18 12 -32 30.5t-24.5 41.5t-17 49t-9.5 53q-10 -10 -20 -16t-22 -6q-11 0 -27 14t-33 31l-12 11q-6 4 -12 9.5l-13 12.5q2 -31 6 -62q2 -22 4.5 -44t2.5 -44q0 -32 -7.5 -60.5t-28.5 -49.5q-20 -17 -43.5 -24.5
t-47.5 -7.5q-35 0 -69.5 14t-60.5 40l-28 27q-30 21 -49.5 53t-20.5 73v6q-1 9 -1.5 24t-0.5 38t1 54.5t6 71.5q9 91 24 159t38.5 114t58 69.5t84.5 24.5h5q33 0 57.5 -16.5t47.5 -46.5zM834 267q-15 84 -23 147.5t-15 111t-15.5 79.5t-23 53t-37.5 32t-59 16
q-39 5 -73 -19.5t-61.5 -60.5t-48.5 -74.5l-33 -61.5l-48.5 89t-43 68t-45.5 42.5t-55 13.5q-47 -1 -80 -24t-55.5 -67.5t-36.5 -111.5t-23 -155q-9 -85 -7.5 -132t2.5 -61q1 -47 29 -82t67.5 -52.5t82.5 -15.5t75 30q22 22 28.5 55t4.5 69.5t-7 74.5t-5 70q11 -6 26 -20
l29.5 -28.5t27.5 -25.5t21 -11q16 0 28.5 12t24.5 28.5l24 33t26 26.5q-4 -26 -4.5 -59.5t3.5 -69t13.5 -69.5t25.5 -60.5t39.5 -42t55.5 -14.5q52 2 86 25.5t53 61t25 84.5t2 95z" />
    <glyph glyph-name="N" unicode="N" horiz-adv-x="849" 
d="M477 600l12.5 -14.5t13.5 -16.5v16q0 36 6.5 62.5t29.5 46.5q24 21 53.5 31t58.5 10q24 0 45.5 -6.5t38.5 -17.5v1q10 -8 18 -16.5t15 -18.5l35 -34q32 -33 42 -76t10 -87v-104q0 -62 -0.5 -111.5t-3.5 -90t-9.5 -75t-18.5 -66.5q-8 -21 -25.5 -38t-41 -28.5t-51 -18
t-55.5 -6.5q-35 0 -66.5 10t-53.5 32l-31 31q-6 4 -11 8t-10 9q-7 6 -22 30.5l-34 55.5q-2 -26 -7 -56t-16 -56t-28.5 -45t-44.5 -23q-17 -3 -50 -3t-70 8.5t-64 35.5l-30 29q-17 11 -30 26.5t-21 38.5q-12 32 -16 76.5t-4 86.5v26q0 13 1 24l3 170q2 34 8.5 66.5t17.5 53.5
q38 63 92 104.5t115 41.5q20 0 39.5 -4.5t38.5 -15.5l29 -16.5t24 -16.5t21.5 -19.5t21.5 -25.5zM370 230l29 -51l34 -59.5t31.5 -52t20.5 -28.5q28 -27 71 -35.5t85.5 -1t77.5 29t47 53.5q14 38 20.5 79.5t9 94t2.5 118.5v153q0 23 -2.5 46.5t-9.5 46t-19.5 42t-32.5 35.5
q-16 12 -39.5 18.5t-49.5 6t-52 -9.5t-47 -28q-27 -24 -30.5 -59t-1.5 -86q1 -25 2.5 -44t1.5 -26l-43 99q-17 29 -30.5 47.5t-27 31.5t-29 22.5t-36.5 20.5q-38 20 -76.5 19t-74 -19t-66.5 -49.5t-55 -71.5q-11 -20 -17 -52t-8 -64l-3 -170q-1 -23 -1 -51q0 -27 1.5 -55
t6 -55t12.5 -49q13 -36 40.5 -54t58.5 -25t60 -5.5t45 3.5q24 3 40.5 20.5t27 42t15.5 53t7.5 53.5t3 43t1.5 23z" />
    <glyph glyph-name="O" unicode="O" horiz-adv-x="805" 
d="M441 312q26 11 34.5 27t10.5 48q-2 10 -4 16q-5 2 -10 3t-10 1q-2 0 -10 -2h-5q-29 0 -48.5 -23t-19.5 -52v-12q0 -5 2 -10q12 -3 24 -3q17 0 36 7zM180 67q-67 53 -103.5 131t-36.5 163q0 48 13 96t39.5 92t68 81.5t98.5 66.5q32 18 66.5 26.5t72.5 8.5q42 0 85.5 -10.5
t83 -30.5t74.5 -48t61 -63l16 -15q32 -33 54.5 -72.5t30.5 -85.5q5 -21 6.5 -41.5t1.5 -41.5q0 -80 -29 -149t-78.5 -120t-115 -80.5t-137.5 -29.5q-46 0 -89 12q-48 12 -89 35.5t-73 55.5zM496 389q-2 -35 -11 -54t-40 -32q-14 -6 -30 -7.5t-31 1.5t-27 11t-17 20
q-16 21 -17.5 45t8 44t28 33t41.5 12q11 3 27.5 -0.5t31.5 -13.5t26 -25.5t11 -36.5v3zM746 456q-8 51 -35 95t-66.5 78t-88 56.5t-99.5 31t-101 2t-93 -30.5q-83 -41 -131.5 -102t-68 -129.5t-10.5 -139.5t42 -132t89 -107t130 -64q62 -17 122 -10t112.5 33t95.5 68.5
t70.5 97.5t36.5 119.5t-5 133.5z" />
    <glyph glyph-name="P" unicode="P" horiz-adv-x="718" 
d="M407 468q-40 -3 -44 -39q14 2 28 10t16 29zM96 14q-20 13 -33 35t-14 56q0 5 -0.5 9t-0.5 9q-2 29 -3 49t-2 34q-2 22 -2 32v18v139q0 39 0.5 64t4.5 45t12.5 40t23.5 48q21 38 52 63.5t68.5 40.5t80.5 21t90 6q84 0 155.5 -27.5t111.5 -83.5l26 -25q28 -28 43.5 -64.5
t15.5 -84.5v-12q0 -5 -1 -10q-4 -46 -13.5 -78.5t-29 -55.5t-51 -40t-79.5 -32q-28 -8 -65.5 -14t-76.5 -8q-3 -9 -3 -16t2 -16.5t4 -22.5q0 -2 0.5 -3.5t0.5 -3.5q3 -14 5 -28.5t2 -29.5q0 -32 -12 -58.5t-44 -39.5q-12 -7 -48.5 -16.5t-80.5 -9.5q-29 0 -56.5 7.5
t-47.5 27.5zM417 467q-2 -18 -10 -27.5t-19 -14.5t-23 -6t-21 -1q-38 0 -38 52q0 55 56 55q11 0 21 -6t17.5 -14.5t12 -18.5t4.5 -19zM667 467q5 63 -17.5 109t-63.5 76.5t-96.5 45.5t-116.5 15q-45 0 -87.5 -6t-79 -20t-66 -38.5t-49.5 -60.5q-17 -30 -25 -50.5
t-11.5 -42.5t-3.5 -52v-77v-63v-27v-15q0 -6 0.5 -13.5t1 -23.5t2.5 -44t4 -75q1 -30 12 -50t29 -32t40 -17t45 -5q24 0 46.5 3t40 7t28 8t11.5 7q22 9 33.5 25t15.5 36.5t2.5 43t-6.5 44.5q-5 26 -7 40.5t5 29.5q39 2 77.5 8t67.5 14q46 15 77 31.5t50 39t28.5 53.5
t12.5 76z" />
    <glyph glyph-name="Q" unicode="Q" horiz-adv-x="823" 
d="M467 386q0 4 -1 7q-10 2 -16 2q-17 0 -30 -6.5t-21 -16.5t-12 -22.5t-4 -24.5v-8q0 -4 1 -9q3 -1 11 -1q37 0 54.5 24.5t17.5 54.5zM176 49q-35 25 -61 62t-42.5 81.5t-24.5 95t-8 102.5q0 70 29.5 130t76.5 105.5t105 74t116 35.5q19 3 55 3q21 0 45 -1.5t47.5 -5.5
t45 -11t38.5 -17q28 -17 53.5 -40.5t47.5 -51.5l13 -13q31 -31 54.5 -67.5t36.5 -74.5q12 -33 16.5 -63t4.5 -56q0 -44 -10.5 -77.5t-19.5 -56.5l-4 -10t-4 -12l7 -12q2 -5 6 -11l9 -14l1 -1q11 -14 15.5 -28t4.5 -27q0 -23 -12.5 -43.5t-32.5 -38.5t-45 -32.5t-49.5 -24.5
t-46 -15.5t-34.5 -5.5q-20 0 -34.5 7t-26.5 19l-33 33q-26 -17 -58.5 -24.5t-64.5 -7.5q-48 0 -92 13t-72 33q-15 11 -30 26zM477 386q0 -17 -5 -32.5t-15 -28.5t-25.5 -20.5t-36.5 -7.5q-23 0 -36.5 9t-20.5 22t-9.5 26t-2.5 21q0 13 4.5 26.5t13.5 25t23 18.5t33 7
q12 0 25.5 -5.5t25 -14.5t19 -21t7.5 -25zM753 189q-11 20 -17.5 30t-6.5 13q5 16 15.5 40.5t17.5 57.5t5 76.5t-21 97.5q-20 55 -61 107t-93 83q-23 14 -54.5 21.5t-63 10.5t-60 2t-46.5 -3q-56 -7 -113 -34.5t-102.5 -71.5t-74 -102.5t-28.5 -126.5q0 -51 8 -100t24 -92.5
t41 -79.5t59 -61q24 -17 60.5 -29t77 -15t80.5 5t71 32q20 -29 38.5 -47t49.5 -18q15 0 41.5 7.5t55 21t55.5 32t43.5 41t18 48.5t-19.5 54z" />
    <glyph glyph-name="R" unicode="R" horiz-adv-x="799" 
d="M433 467q0 4 -1 6q-6 2 -9 2q-18 0 -35.5 -14t-17.5 -31v-18q5 -1 16 -1q21 0 34 16.5t13 39.5zM712 226q4 -5 5.5 -8t3.5 -5l-30 29l4 -4l29 -28l10 -12.5l9 -11.5l30.5 -40.5t19.5 -29.5t10 -25t3 -28q0 -47 -25 -69q-9 -8 -36.5 -16.5t-58.5 -15t-59 -10.5t-40 -4
q-2 0 -5 -0.5t-5 -0.5q-20 0 -41 9t-35 23l-35 34q-26 18 -34 41h4l-19 28.5t-22 35.5q-1 -12 -1.5 -22t-0.5 -20q-1 -31 -3 -55.5t-11 -41t-27.5 -25t-52.5 -8.5h-27q-51 0 -86.5 3.5t-57.5 25.5l-35 34q-23 13 -36 41.5t-15 82.5q-1 15 -1 32v34q0 58 5.5 124.5
t20.5 128.5t40.5 115t65.5 86q45 37 95.5 53t104.5 16q50 0 95 -12q78 -23 126.5 -49.5t74.5 -63.5l26 -27q0 1 -1 1v0l3 -2q26 -26 37.5 -59t11.5 -78q0 -26 -4.5 -46t-12 -36t-16.5 -28.5t-18 -23.5q-13 -14 -19 -27q1 -3 10 -14.5l20 -24.5zM443 467q0 -28 -15.5 -47
t-41.5 -19q-73 0 -73 79q0 10 5.5 19.5t14.5 16.5t19.5 11.5t20.5 4.5q24 0 47 -17.5t23 -47.5zM749 113q0 16 -3.5 28.5t-12 27t-23 33.5l-36.5 48q-3 4 -12 15l-18.5 23l-17 22t-7.5 12q7 14 19 27.5t23 31t19.5 42t8.5 59.5q0 44 -12 76.5t-39 58t-69.5 45.5t-103.5 38
q-36 10 -73.5 12t-74.5 -4.5t-72.5 -21.5t-65.5 -40q-45 -37 -71.5 -100t-39.5 -135.5t-16 -146t0 -131.5q2 -52 15.5 -79t38 -38t60.5 -12t83 -1q42 0 59.5 15t23 43.5t5 70t7.5 94.5q10 -21 27 -50.5l32.5 -56.5l27.5 -46.5l12 -19.5v1q4 -11 14 -20.5t23 -16.5t28 -10.5
t29 -1.5q12 0 39.5 4t57.5 10t56.5 14t35.5 16q23 20 23 64z" />
    <glyph glyph-name="S" unicode="S" horiz-adv-x="674" 
d="M194 379q-35 23 -52.5 59t-17.5 77q0 39 14.5 76.5t43.5 64.5q39 39 83 55.5t92 16.5q29 0 60 -5.5t63 -16.5q38 -15 64 -33t42 -42l31 -31q5 -5 9 -10.5l8 -10.5q27 -36 27 -91q0 -43 -22.5 -71t-73.5 -38h-1q-3 -1 -7 -1h-6q-20 0 -38.5 7.5t-27.5 11.5q-7 -7 -9 -14
q3 -1 5.5 -1.5t6.5 -1.5q27 -6 60 -26.5t56 -54.5l26 -25q22 -22 36.5 -51.5t14.5 -66.5q0 -47 -14 -80t-36 -56t-48 -37t-51 -21.5t-46 -10.5t-31 -4q-6 0 -7 -1h-1q-10 -2 -22 -3t-27 -1q-28 0 -61.5 4t-68 14t-66.5 26.5t-57 40.5l-28 28q-31 23 -51.5 55.5t-24.5 77.5
v12q0 40 19.5 71t50.5 42q10 3 25 3q24 0 49 -6.5t47 -14.5q10 -4 14 -5q28 -10 32 -10q14 0 24.5 5.5t14.5 16.5q-6 2 -12 4.5l-13 5.5q-22 5 -39 15t-31 24zM433 455q0 1 7 -3t18.5 -8.5t26 -7.5t28.5 0q48 9 69.5 35.5t21.5 66.5q0 52 -26 87q-16 23 -41 40.5t-60 31.5
q-39 13 -77 18.5t-75 1t-71 -20.5t-65 -47q-31 -30 -45 -73t-8 -85t32 -76t76 -46q84 -30 84 -60q0 -17 -15 -28t-35 -11q-7 0 -26.5 7.5t-44 15t-50 12t-43.5 -1.5q-30 -10 -48 -41.5t-15 -72.5q4 -45 25.5 -77t53.5 -54t70.5 -34.5t75.5 -18.5t69 -6t52 4q3 1 21.5 2.5
t43.5 8t53.5 19t52.5 35t40 56t16 82.5q0 35 -14 63.5t-35 49.5t-45.5 33.5t-44.5 17.5q-32 7 -46.5 19t-18.5 25t0.5 24t12.5 17z" />
    <glyph glyph-name="T" unicode="T" horiz-adv-x="801" 
d="M95 419q-28 15 -41 47.5t-13 80.5v12q1 43 15 71t35 45.5t46 25t48 9.5h-1l30 5t60 8t80.5 7.5t92.5 3.5q44 0 88 -4.5t83 -15t70.5 -28t49.5 -44.5l33 -32q36 -36 36 -91v-10q0 -36 -6 -60.5t-14 -43.5q-9 -20 -27.5 -31t-42 -16t-48 -6t-44.5 -1q-15 0 -20 -16.5
t-5 -42.5q0 -20 2.5 -42.5t4.5 -44.5q2 -18 3.5 -34.5t1.5 -29.5v-6q0 -50 -2.5 -84.5t-14.5 -56.5t-38 -33t-73 -13q-11 -1 -21 -1h-19q-43 0 -78.5 8t-58.5 31l-32 31q-23 14 -37.5 38.5t-18.5 65.5q3 47 6 83.5t5 64.5q1 22 3 39q1 8 1 15t1 13q1 9 1.5 16t0.5 13
q-2 0 -4.5 -0.5t-3.5 -0.5q-17 -3 -35 -3q-41 0 -66 25zM750 559q3 46 -18 76.5t-58 49.5t-86 27.5t-101 10.5t-103 -1t-93 -7.5t-70 -9t-35 -5.5q-22 -2 -45 -9t-42.5 -23t-33 -42.5t-14.5 -66.5q-2 -66 20 -103.5t73 -37.5q16 0 31 3t27 3q13 0 24 -5.5t19 -21.5
q3 -3 3 -14q0 -10 -2.5 -39t-6.5 -81.5t-10 -140.5q4 -42 21.5 -66.5t45 -36.5t63 -14t75.5 0q45 2 69.5 12.5t36 32t13.5 54.5t2 81v6q0 24 -5 60.5t-6.5 71.5t4 60t27.5 25q19 0 43 1t46.5 5.5t40.5 15t26 28.5t13.5 42t5.5 59z" />
    <glyph glyph-name="U" unicode="U" horiz-adv-x="845" 
d="M456 0q-21 0 -44 -0.5t-49 1.5t-55.5 9.5t-65.5 22.5q-54 23 -90.5 57.5t-59 79.5t-32.5 101t-10 122q0 40 6 81t15.5 77t21.5 64.5t24 42.5q21 24 40.5 36t39 17t38.5 4.5t39 -2.5q36 -3 59.5 -17.5t37 -38.5t18.5 -57.5t5 -74.5q0 -18 -3 -42.5t-3 -62.5q0 -30 15 -43
t38 -13q17 0 30.5 13t18.5 43q3 4 1.5 27.5l-3.5 53t-2 57.5t6 43q4 28 21.5 47.5t41.5 32.5t52 19t53 6q13 0 32 -5t37.5 -20t33.5 -43t20 -74q7 -69 10.5 -136.5t-5 -130t-33.5 -119.5t-74 -106q-21 -21 -48 -34t-57 -21t-61 -11.5t-59 -5.5zM449 440q1 10 1.5 18.5
t0.5 16.5q0 54 -9 94.5t-34 65.5l-32 31q-15 24 -39 38t-62 19q-10 1 -20 1.5t-20 0.5q-32 0 -62.5 -11t-62.5 -49q-13 -15 -25.5 -44t-22.5 -66t-16 -79t-6 -83q0 -112 28 -193.5t97 -134.5l23 -22q39 -39 101 -66q53 -23 93 -28.5t74 -5.5h50q28 2 59.5 5.5t62 11.5
t58.5 21.5t50 35.5q68 68 92 150.5t24 174.5q0 43 -3.5 85.5t-8.5 87.5q-5 42 -17.5 69t-29.5 44l-31 31q-24 35 -53.5 46t-48.5 11q-26 0 -55.5 -6.5t-55 -20t-44 -34.5t-23.5 -50q-6 -17 -6 -51q0 -18 1 -37t3 -36v-3q1 -12 1.5 -23t0.5 -19q0 -10 -2 -12
q-5 -26 -14.5 -37t-20.5 -13q0 20 1 36t3 30z" />
    <glyph glyph-name="V" unicode="V" horiz-adv-x="857" 
d="M407 584l17 -18.5t17 -20.5l18 30t21.5 34t23.5 33t23 27q29 29 58.5 41t58.5 12q42 0 77.5 -20t58.5 -47l5.5 -7.5t4.5 -7.5l38 -37q17 -20 26 -51.5t9 -68.5v-5q0 -21 -3.5 -57t-25.5 -95l-25.5 -62.5t-37.5 -79.5t-50.5 -83.5t-64 -74.5t-78.5 -54t-93 -21h-13t-11 1
q-32 8 -77.5 30.5t-96.5 73.5l-4 4q-29 21 -59 52.5t-59.5 75t-58 101t-53.5 131.5q-2 7 -7.5 32.5t-5.5 61.5q0 23 4 48.5t14 50.5t28 47t46 39q20 12 37 14.5t31 2.5h12q19 0 41 -8t45 -23t46 -35.5t43 -45.5zM806 533q0 35 -8 65t-25 50q-19 22 -46 39.5t-59 23t-66.5 -5
t-67.5 -43.5q-15 -15 -32 -39t-31.5 -47.5t-24.5 -42t-13 -22.5q-17 40 -44.5 76t-58 62.5t-62.5 42t-58 14.5q-15 -1 -32 -1.5t-40 -14.5q-47 -29 -65.5 -71t-21.5 -83t3 -73t9 -40q41 -120 89.5 -196.5t96.5 -122.5t91.5 -67t73.5 -28q52 -5 96.5 13t82 50.5t67.5 74.5
t52.5 84.5t39 81.5t25.5 65q23 63 26 99t3 56z" />
    <glyph glyph-name="W" unicode="W" horiz-adv-x="1008" 
d="M572 460q10 -10 21 -29q5 42 14 86.5t29 80.5q8 20 24.5 44t48.5 44q24 14 39.5 17t32.5 3h23q35 0 69 -16.5t60 -53.5l27 -27q16 -16 29 -38.5t22 -51.5v-1q2 -13 3 -28.5t1 -33.5q0 -32 -6 -65q-10 -39 -19.5 -71t-22 -64.5t-30 -67.5t-43.5 -80q-17 -29 -35.5 -56.5
t-40 -49.5t-45.5 -35.5t-50 -13.5h-1q-17 0 -48 15.5t-62 46.5l-25 24q-15 12 -30 27q-12 -18 -29.5 -39t-38 -38.5t-42.5 -29.5t-44 -12q-15 0 -30 7q-36 16 -72 52l-16 16q-42 30 -79.5 81t-67.5 111t-52 122t-35 113q-11 39 -11 84q0 32 7.5 61.5t26.5 54.5
q12 18 29 31.5t35.5 22.5t38 13t37.5 4h9q37 -2 72 -16.5t64 -55.5l27 -27q27 -27 46 -72q18 -45 22 -78q11 22 23.5 37.5t24.5 15.5l1 -1h4q9 -2 18 -11t17 -23zM954 567q-11 36 -28.5 61t-38.5 40.5t-44 22t-46 5.5q-20 0 -36.5 -1t-45.5 -18q-30 -20 -46 -43t-24 -41
q-14 -24 -22.5 -54t-13.5 -61t-7.5 -61t-5.5 -54q-8 10 -18.5 33.5l-22.5 48.5t-25 45t-26 23q-10 4 -23 -16.5t-25.5 -48t-22 -53.5t-11.5 -32q-11 37 -14.5 65t-5.5 53.5t-7 52.5t-19 62q-14 33 -31 54.5t-37 34.5t-41.5 18.5t-43.5 6.5q-34 2 -75 -14t-66 -53
q-29 -40 -31 -92t10 -99q9 -38 24 -81.5t33.5 -88t41.5 -87.5t49.5 -79.5t55.5 -64t61 -41.5q28 -12 56.5 0t54.5 35.5t46.5 51t32.5 46.5q15 -32 36.5 -57t44 -42t43 -25.5t32.5 -8.5q25 0 48.5 13t44 35t39 49t34.5 55q25 44 42.5 79t30 67.5t22 64.5t19.5 70q7 36 5.5 68
t-3.5 56z" />
    <glyph glyph-name="X" unicode="X" horiz-adv-x="881" 
d="M412 634l28.5 -35t34.5 -47q29 44 57.5 73t53.5 47t46 26.5t36 10.5h2q5 1 9.5 1.5t9.5 0.5q38 0 71.5 -20t53.5 -52l26 -25q21 -21 34 -49t13 -60v-8q0 -3 -0.5 -6t-0.5 -6q-1 -8 -2 -17t-4.5 -19.5t-11 -23.5t-20.5 -30q-12 -16 -28.5 -29.5t-34 -24t-35 -18
l-31.5 -13.5q18 -11 33.5 -23t23.5 -25q2 -3 5 -6t5 -6l26 -26q5 -5 11 -13l-1 1q29 -32 39.5 -61.5t10.5 -57.5q0 -21 -3 -37q-3 -17 -11.5 -33.5t-21 -30t-27.5 -23.5t-30 -15q-11 -3 -23.5 -5t-28.5 -2q-38 0 -81.5 14.5t-76.5 47.5l-27 26q-17 12 -31 27.5t-25 35.5
l-4 8q-2 3 -4 6.5t-4 7.5q-2 -2 -2 -3l-37.5 -52t-44.5 -56q-29 -32 -56.5 -49t-65.5 -17q-14 0 -27 2t-29 6q-18 5 -36 16.5t-33 26.5l-23 23q-25 17 -43.5 40t-26.5 45q-9 27 -9 51q0 27 9.5 48t26.5 45q14 20 49.5 47t96.5 68q-17 9 -33.5 19t-30.5 24l-28 28
q-14 9 -25 20.5t-19 25.5q-22 40 -22 83q0 70 55 120q19 18 54 32.5t74 14.5q27 0 54 -7t52 -26q5 -4 14.5 -14.5l21.5 -24.5l18 -19q-1 2 -2 2.5t-2 1.5zM830 547q2 33 -11 62.5t-35.5 51.5t-52.5 32.5t-62 5.5q-15 -2 -37.5 -11.5t-49.5 -30.5t-57.5 -55.5t-60.5 -86.5
q-4 18 -20 45t-34.5 53.5t-36 47t-25.5 26.5q-29 21 -61.5 27t-62.5 2.5t-54.5 -14t-37.5 -23.5q-45 -37 -55 -90.5t19 -106.5q12 -23 34.5 -37.5t46 -26.5l44.5 -23.5t31 -26.5q-71 -46 -112 -77t-55 -51q-23 -32 -31.5 -62t6.5 -73q5 -14 15.5 -29.5t24.5 -29t30.5 -24
t33.5 -14.5q31 -8 55 -8t43.5 7.5t37 22t35.5 34.5t36 44l33 45l24.5 35t10.5 13q3 0 10 -11.5t15.5 -27t16.5 -32.5t14 -28q19 -35 49 -56t63 -31t65 -10.5t55 6.5q14 4 28 13.5t26 22.5t20 28t11 32q3 16 3.5 34t-4 36.5t-15 38.5t-29.5 41q-11 16 -33 31.5t-44.5 28
l-39 22t-16.5 14.5q0 3 18.5 9.5t44 18t52 28.5t43.5 40q15 19 22.5 33.5t10.5 25.5t3.5 20.5t1.5 18.5z" />
    <glyph glyph-name="Y" unicode="Y" horiz-adv-x="878" 
d="M162 372l12 -12v1zM231 271q-8 31 -29.5 56t-47.5 50l-34.5 35.5t-32.5 39.5t-27 45.5t-18 54.5q-1 5 -1.5 10t-0.5 12q0 24 10.5 50.5t30 48t47.5 35.5t64 14h10t10 -1q18 -2 34.5 -6t32.5 -13t32.5 -24t35.5 -39l20 -19q22 -22 49 -61q5 -8 13 -24l16 -32q0 -3 2 -5
q7 5 13.5 16t11.5 24t9.5 27l8.5 26q1 1 1 2q1 2 2 6t3 9q14 40 31 62t37.5 33.5t43 14t48.5 3.5h8q30 0 55.5 -7t46 -18t35 -24.5t22.5 -26.5l31 -30q12 -12 19 -26q12 -23 12 -46q0 -24 -10 -50t-26.5 -52t-38 -53.5l-43.5 -54.5l-30.5 -38.5t-28.5 -38.5h-1q-2 -6 -5 -12
q-7 -11 -16.5 -33t-13.5 -60q-6 -59 -22.5 -99t-41 -65.5t-54.5 -36.5t-62 -11q-44 0 -90 20q-22 9 -38 25l-32 31q-20 12 -33 30t-21.5 40t-15 48.5t-12.5 56.5q-8 40 -19 81zM241 274q12 -47 20 -88t18.5 -75t27.5 -58.5t48 -37.5q40 -17 83 -19t80 18t63.5 65.5
t33.5 122.5q3 27 9 46t12 31.5t11 19.5t5 11q31 43 67.5 86.5t64.5 85t39.5 80.5t-6.5 74q-6 12 -20 26t-34.5 25t-47 18t-59.5 6q-24 -1 -45.5 -3.5t-40.5 -13t-35 -31t-29 -57.5q-4 -12 -10 -32.5t-14.5 -40.5t-20 -34.5t-26.5 -14.5q-8 0 -17 13.5t-18.5 32.5l-19.5 40
t-20 35q-23 33 -41.5 53t-35.5 31t-34.5 15.5t-37.5 6.5q-42 5 -74 -9.5t-52.5 -39t-29 -54t-3.5 -54.5q10 -52 37.5 -88.5t58 -67.5l57.5 -59.5t36 -64.5z" />
    <glyph glyph-name="Z" unicode="Z" horiz-adv-x="831" 
d="M702 356q-9 -6 -17 -10h4q38 -7 58 -17t28 -29l36 -35q15 -14 18.5 -38.5t6.5 -62.5q1 -8 1 -17v-16q0 -52 -13.5 -87.5t-38 -57t-60.5 -31t-81 -9.5h-21q-17 0 -38.5 -1t-47.5 -3l-73.5 -4t-79.5 -2q-51 0 -99.5 4.5t-88.5 16.5q-47 15 -72 40l-31 30q-53 35 -53 94
q0 11 1 16q4 21 19.5 46.5t39 52.5t52.5 54.5t59 52.5q-21 2 -39 8t-30 19l-35 34q-17 10 -27.5 26.5t-10.5 43.5q0 30 8.5 64t24.5 65.5t39 56t53 35.5q12 4 33 7t48.5 4.5t59.5 2.5t65 1q34 0 66.5 -0.5t60 -2t49 -3t32.5 -2.5q40 -5 72 -26t52 -51l27 -26
q23 -23 35.5 -51t12.5 -58q0 -24 -7 -44q-11 -29 -37 -49.5t-61 -40.5zM779 213q-2 31 -5 52t-11.5 35t-26 22.5t-48.5 13.5q-8 1 -30.5 -1t-48 -5t-48.5 -5t-32 0q34 33 68 55l63.5 40t51.5 36t31 42q12 31 6 63.5t-25.5 60t-49.5 46.5t-67 24q-15 2 -46.5 4t-72 3t-85.5 1
q-44 0 -84.5 -1.5t-73 -4.5t-48.5 -9q-28 -10 -50 -33.5t-37 -53.5t-23 -62.5t-8 -61.5q0 -28 13.5 -43.5t35 -22.5t48.5 -7.5t54.5 2.5t51.5 7t41 6q-34 -23 -79 -58t-86 -74t-71.5 -78.5t-35.5 -70.5q-5 -42 19 -73t78 -48q49 -15 112.5 -18.5t125.5 -1.5t115 6t82 3
q49 -1 87.5 9t64 34.5t37 65t7.5 101.5z" />
    <glyph glyph-name="a" unicode="a" horiz-adv-x="795" 
d="M405 463l34 -36v1zM403 463l37 -38v1zM405 363q2 1 3 1q2 0 4 1q30 22 30 46v3q-15 -4 -26 -18t-11 -31v-2zM107 12q-28 17 -44.5 49t-19.5 82v8q-1 14 -1.5 25.5t-0.5 23.5q0 38 7 77t27 96q14 38 34.5 74.5t48.5 78.5q16 25 41.5 55t57 57t68 46.5t75.5 25.5q5 1 10 1
h11q28 0 55.5 -10t53 -27t48 -39t42.5 -47l5 -4l5 -5q21 -21 39.5 -45t32.5 -48q10 -18 27 -54.5t33.5 -80.5t28 -90.5t11.5 -83.5q0 -33 -1.5 -66.5t-11 -63.5t-29.5 -54t-57 -36q-14 -5 -31 -7t-34 -2q-35 0 -69 9.5t-53 27.5l-34 34q-18 9 -27 24h1q-9 14 -14.5 39
t-11.5 60q-5 -5 -8.5 -11.5t-4.5 -10.5q-1 -5 -1.5 -10t-1.5 -10l-4.5 -34.5t-10.5 -38.5q-17 -45 -51.5 -65t-82.5 -20q-16 0 -33 1.5t-34 6.5q-37 9 -61 33zM451 422q3 -16 -3 -32.5t-23 -28.5q-3 -2 -11.5 -5.5t-19 -2.5t-22 10t-20.5 32q-6 14 -3.5 27.5t9.5 25
t18.5 18.5t23.5 7q42 1 51 -51zM745 227q0 37 -11.5 82.5t-27.5 89t-33 79.5t-27 54q-20 33 -47 65.5t-59 57t-67 37.5t-72 8q-38 -6 -73 -25t-65.5 -45.5t-55 -55.5t-40.5 -54q-28 -43 -48.5 -78.5t-33.5 -71.5q-14 -39 -21.5 -68.5t-10.5 -55t-2.5 -50t2.5 -53.5
q4 -61 29.5 -93.5t67.5 -42.5q69 -17 119.5 -0.5t72.5 73.5q11 28 13 53t5 39q2 9 13 22t23 13q14 0 25.5 -15t16.5 -39q7 -38 12.5 -65t13.5 -39q10 -15 32 -25.5t49 -15t55 -3.5t51 9q35 12 54 34.5t28 51.5t10.5 62t1.5 65z" />
    <glyph glyph-name="b" unicode="b" horiz-adv-x="655" 
d="M333 455q-7 -4 -12 -13q8 5 12 13zM349 214q-21 -8 -26 -26q18 6 26 26zM620 479q0 -6 -2 -19.5t-8 -32t-18.5 -40t-33.5 -41.5q7 -6 12.5 -12.5t10.5 -13.5l32 -32q23 -23 33.5 -53.5t14.5 -73.5v-10q0 -30 -14.5 -63.5t-38.5 -62.5t-56 -50t-66 -25q-35 -5 -67.5 -7.5
t-64.5 -2.5q-56 0 -102.5 12.5t-81.5 47.5l-28 28q-35 24 -58 66q-15 27 -23 50.5t-12 47.5t-5 51t-1 61v26v15q0 9 -1 20q-1 15 -1.5 32t-0.5 36q0 35 3.5 68t14.5 56q18 40 41.5 69t56 48t76.5 28.5t105 9.5q153 0 208 -79l31 -31q44 -44 44 -123zM303 426q-46 0 -46 36
q0 20 12 38t31 18q11 0 23 -2t23 -22v-1q9 -63 -43 -67zM363 235q0 -23 -14 -40.5t-34 -17.5q-23 0 -32 9.5t-14 23.5q-8 27 5 45.5t47 18.5q14 0 28 -12t14 -27zM604 210q-3 34 -10.5 59.5t-22 46t-37 36t-56.5 29.5q29 21 46 44.5t25.5 44.5t11 37t2.5 22q0 173 -226 173
q-59 0 -101.5 -9t-74 -27.5t-54 -46.5t-40.5 -66q-10 -21 -13.5 -52.5t-3.5 -63.5t1.5 -61.5t1.5 -45.5q0 -40 0.5 -70.5t4 -56.5t11.5 -51t24 -54q24 -43 59 -65t79.5 -30t96 -5.5t107.5 9.5q35 4 66.5 25.5t55.5 51.5t37 63.5t10 62.5z" />
    <glyph glyph-name="c" unicode="c" horiz-adv-x="675" 
d="M444 351q-28 0 -50.5 -21.5t-30.5 -50.5q11 4 24.5 9.5l27.5 11.5q3 2 6.5 2.5t6.5 2.5q20 8 38 14.5t31 8.5l-7 4l-28 13t-18 6zM675 428q0 -21 -10 -40t-25 -34.5t-33.5 -26.5t-35.5 -15q30 -17 46 -45l29 -28q16 -16 25.5 -37.5t9.5 -47.5v-3q0 -104 -103 -158l1 -1
q-17 -11 -64 -27t-114 -20l4 -4q-68 7 -115.5 22t-88.5 56l-22 21q-23 17 -44 41t-44 59q-26 40 -38.5 86t-12.5 97q0 65 24.5 131t77.5 128v-1q25 31 50 54t52.5 38.5t61 23t77.5 7.5q23 0 48 -2t54 -6q34 -6 61 -25.5t47 -46.5l28 -27q28 -27 43 -63.5t15 -72.5
q0 -9 -1 -17t-3 -16zM335 1q36 1 66.5 6t55.5 12t42 15t26 14q100 54 99 156q0 25 -9.5 46t-25.5 36.5t-38 24t-47 8.5q-11 0 -34 -8.5t-48.5 -19t-48.5 -19t-33 -8.5q-36 0 -36 44q0 18 7.5 36t19.5 32t28.5 23t34.5 9q5 0 17.5 -5.5l27 -12.5l28 -13t19.5 -7q15 -7 38 0
t44 23t35.5 38.5t14.5 47.5q7 30 0 64t-25 63.5t-46 51.5t-63 28q-71 10 -121 7.5t-88 -17t-68.5 -41.5t-62.5 -66q-49 -57 -71.5 -120t-22.5 -126q0 -49 12 -93.5t38 -83.5q28 -44 54 -70.5t53 -42t58 -22.5t71 -11z" />
    <glyph glyph-name="d" unicode="d" horiz-adv-x="688" 
d="M344 288q29 8 44 29.5t15 66.5v12h-1v5q0 7 -3 15q-15 5 -25 5q-17 0 -28 -11q0 -14 -0.5 -28.5t-0.5 -29.5q-1 -17 -1 -33v-30v-1zM42 591q26 27 59 51t73 45q45 23 83.5 26.5t69.5 3.5h9q39 0 76 -10.5t69.5 -28.5t59.5 -42t48 -51l17 -17q56 -56 74 -117
q6 -19 10.5 -48t4.5 -74q0 -25 -1.5 -54.5t-6.5 -65.5q-7 -59 -29 -102.5t-52.5 -74t-66 -49t-69.5 -25.5q-35 -8 -70 -10.5t-64 -2.5q-25 0 -44 1t-29 2q-3 0 -5 0.5t-3 0.5q-13 0 -31.5 2.5t-38 8.5t-38 15.5t-31.5 23.5l-33 33q-17 10 -27 24q-2 27 -4.5 69.5t-4.5 92.5
t-3 106t-1 110q0 74 -3 152zM412 406q3 -39 -3.5 -64.5t-20.5 -40.5t-36 -21.5t-52 -6.5q-8 0 -10.5 19t-2.5 47q0 29 1 62t1 61q13 16 34.5 15.5t41.5 -11.5t34 -29.5t13 -37.5v7zM50 585q3 -78 3 -151q0 -54 1 -109t3 -105t4.5 -92t4.5 -69q12 -14 30 -24t37.5 -16.5
t38.5 -9.5t33 -3q3 0 23 -1.5t49.5 -2t66.5 2t75 10.5q33 7 67.5 24.5t64 47.5t51 73t28.5 100q6 50 7.5 88t-0.5 66.5t-6 49t-8 35.5q-12 38 -39.5 76t-66.5 68t-87.5 48t-102.5 16q-31 0 -68.5 -3.5t-80.5 -25.5q-79 -41 -128 -93z" />
    <glyph glyph-name="e" unicode="e" horiz-adv-x="660" 
d="M665 266q-2 -23 -11.5 -38.5t-24 -25.5t-33.5 -16t-41 -9q16 -9 28 -19.5t19 -22.5l35 -34q21 -21 21 -44q0 -8 -1 -11q-2 -29 -11.5 -47t-25.5 -28.5t-38 -14.5t-49 -6q-31 -5 -67 -8t-78 -3q-38 0 -80 2.5t-87 9.5q-37 6 -62 31l-32 31q-30 19 -47 53t-25.5 72t-11 74
t-2.5 60v33q0 35 1.5 72.5t6.5 80.5q5 48 12.5 86.5t24.5 69t46 54t76 41.5q11 4 30 6.5t43 4t51.5 2t55.5 0.5q59 0 108 -18.5t78 -62.5l29 -28q33 -33 45 -89v-8q0 -37 -29 -55t-70 -29q17 -8 31.5 -19.5t23.5 -26.5l35 -34q27 -27 27 -68v-9q0 -4 -1 -9zM600 97
q4 21 -8.5 38.5t-34.5 31.5t-50 24.5t-53.5 16.5t-44.5 8.5t-25 1.5q38 9 76.5 12t70 10.5t53 24t24.5 52.5q6 46 -17.5 72t-61.5 39.5t-81.5 18.5l-76.5 9q33 12 72.5 20t73.5 19t55.5 28.5t18.5 49.5q-8 38 -26.5 64.5t-45.5 43t-60.5 24t-70.5 7.5q-27 0 -54 -0.5
t-50.5 -2t-42 -4t-29.5 -6.5q-45 -17 -72.5 -39.5t-44 -52t-24 -66.5t-12.5 -84q-6 -54 -7.5 -99.5t-0.5 -85.5q0 -26 3.5 -68.5t15.5 -84t36 -73.5t66 -38q96 -14 173 -12.5t137 11.5q26 2 47 6t36 13.5t24 26t11 44.5z" />
    <glyph glyph-name="f" unicode="f" horiz-adv-x="685" 
d="M691 510q-2 -15 -6 -28.5t-14.5 -25t-29.5 -20t-52 -13.5q13 -8 23 -17.5t16 -20.5l33 -33q23 -23 23 -53q0 -11 -1 -16q-2 -19 -7.5 -32.5t-16.5 -24.5t-27.5 -20t-40.5 -19q-26 -11 -51 -16t-50 -5q-39 0 -71 7q8 -31 11 -51t3 -29v-5q-3 -44 -21 -71.5t-43 -42.5
t-53.5 -20.5t-52.5 -5.5q-40 0 -54 7q-19 8 -37 26l-30 29q-33 22 -54 63t-35 107q-4 18 -6 34.5t-3.5 34.5t-2 40.5t-0.5 52.5v128q3 30 12.5 59.5t25.5 56t37 49t45 38.5h-1q50 29 107.5 42.5t114.5 13.5q41 0 79 -6.5t71 -18.5q33 -14 58.5 -30t39.5 -39l31 -31
q15 -15 23 -33.5t8 -44.5q0 -4 -0.5 -8t-0.5 -8zM626 334q7 36 -16.5 59.5t-63.5 38.5t-89 24l-94 17q93 -2 146.5 3.5t80.5 17.5t34.5 29t9.5 38q3 28 -3.5 48.5t-20.5 36t-34.5 27t-46.5 22.5q-36 13 -81.5 19.5t-93 4t-94 -14.5t-84.5 -34q-51 -29 -85 -84t-40 -117
q0 -67 -0.5 -110.5t0.5 -74.5t3.5 -54t8.5 -48q15 -70 38 -111.5t61 -59.5q6 -3 23.5 -5t40 -1t48 7.5t47 21.5t37 40.5t18.5 64.5q1 6 -2.5 30t-14.5 64q45 -10 89 -10q45 0 90 20q22 10 38 18.5t26.5 18.5t16 23t7.5 31z" />
    <glyph glyph-name="g" unicode="g" horiz-adv-x="825" 
d="M330 284q0 -11 1 -23t6 -23q9 -5 20 -8t25 -5l20 7.5t13 5.5l-4 4l-2 2h-1q-6 4 -13.5 11t-14.5 16t-12 19.5t-5 21.5q0 10 5 21t13 20.5t17 16.5t18 10q32 10 72 17q-20 5 -36 8.5t-28 3.5q-21 0 -38 -9t-33 -30q-10 -16 -16.5 -38t-6.5 -48zM148 52q-31 22 -54 52
t-35 70q-18 61 -18 132q0 69 17 135.5t50 120.5q71 108 195 151q4 1 17.5 3t32.5 4t41 3t44 1q20 0 38 -1t30 -4q38 -9 75 -29t60 -54l28 -28q19 -19 30 -43.5t11 -56.5q0 -29 -25 -64q-7 -11 -17.5 -19.5t-23.5 -15.5q45 -3 79.5 -16t50.5 -41l36 -35q16 -16 20 -37
q1 -4 1 -13q0 -18 -10.5 -33.5t-27 -27t-37 -19t-40.5 -9.5v-16q0 -20 -1.5 -42t-6.5 -36q-12 -36 -40.5 -63t-67 -45t-84 -27t-93.5 -9q-34 0 -69 5t-68 16t-63 28.5t-54 41.5zM413 253q13 -6 14.5 -11t-4 -9.5t-16 -9t-22.5 -8.5q-52 5 -77.5 30.5t-32 58t1 66t20.5 54.5
q15 20 31 30t35.5 11.5t44.5 -3.5t57 -15q16 -7 40 -6t48 8.5t44.5 20t31.5 28.5q24 34 24 60q0 33 -13 58.5t-34.5 44t-48.5 30.5t-54 18q-20 4 -50.5 4.5t-61 -1t-55 -4.5t-30.5 -5q-119 -41 -189 -147q-24 -40 -39.5 -87t-22 -96.5t-3.5 -99.5t17 -96q15 -49 47 -83
t74 -55.5t89.5 -31.5t93.5 -10t91 8.5t82.5 26t65 43.5t39.5 61q3 10 5 23t2.5 26.5t0.5 26.5v23q21 1 43 8.5t39.5 20t26.5 29t5 35.5q-6 26 -27 41.5t-52 22.5t-68 8t-74.5 -3t-72 -11t-59.5 -15q-8 -3 -16 -9.5t-15 -14.5t-11.5 -17t-4.5 -18q0 -18 15 -35t25 -24z" />
    <glyph glyph-name="h" unicode="h" horiz-adv-x="726" 
d="M406 147v21q0 12 -2 24q-12 -6 -15.5 -18t-3.5 -28q0 -6 0.5 -13t0.5 -13q1 -8 1 -17v-16q-1 -24 -6 -48.5t-15 -45t-26 -33t-40 -12.5h-2q-8 -1 -30.5 -2t-48.5 -1q-16 0 -30 0.5t-25 2.5q-20 3 -33 16l-37 36q-15 7 -24 21.5t-13.5 35t-6.5 45.5t-3 54q-1 12 -1.5 25
t-1.5 27q-3 39 -3.5 81t-0.5 84q0 11 0.5 22t0.5 22v123q0 37 9.5 68t28.5 53.5t47.5 35.5t67.5 13h10q34 -1 60 -6.5t38 -30.5l37 -37q17 -17 18 -52v-8q0 -11 0.5 -29t5.5 -36h2q17 0 30.5 29.5t13.5 100.5q0 24 8 37.5t23 20.5t35.5 8.5t45.5 2.5h14q44 0 75 -13t48 -42
l29 -30h-1v1l4 -3q34 -34 34 -104q0 -6 0.5 -23.5t1 -42.5t1 -56t1.5 -65q1 -42 1.5 -85.5t1.5 -81.5t1.5 -66.5t0.5 -40.5q0 -15 -2.5 -33.5t-8 -35t-14.5 -28t-22 -12.5q-3 0 -4 -1h-1q-9 -2 -25 -3.5t-45 -1.5h-15q-32 1 -56 3.5t-41 19.5l-36 36q-22 11 -36 43t-21 101
v1zM416 147q5 -56 15.5 -86t26.5 -43t38 -15t50 -3q41 -1 60.5 1.5t29.5 4.5q11 0 19 11t12.5 26.5t6.5 33t2 31.5q0 15 -0.5 52t-1.5 85.5t-2.5 101.5t-2.5 99t-1.5 80t-0.5 43q0 75 -38 104.5t-108 26.5q-23 -1 -41.5 -2.5t-32 -7t-21 -17t-7.5 -32.5q0 -78 -16.5 -110
t-39.5 -30q-25 1 -38 19t-18.5 40.5t-6 44t-0.5 29.5q-1 22 -8.5 35t-20.5 20t-30 9t-37 2q-40 2 -69 -10t-48 -34.5t-28 -54.5t-8 -69q0 -36 -0.5 -76.5t-0.5 -82.5t0.5 -83.5t3.5 -80.5q3 -41 4.5 -76t6.5 -62t16 -44.5t34 -21.5q17 -3 40 -3.5t44 0.5t36 2l15 1
q22 0 37 12t24 31t13.5 42.5t5.5 46.5q0 21 -1.5 40.5t0.5 35t9 26t25 14.5q19 4 29.5 -6t15.5 -26.5t6.5 -37t1.5 -36.5z" />
    <glyph glyph-name="i" unicode="i" horiz-adv-x="412" 
d="M96 9q-18 10 -30 27t-16 44l-2 6l-2.5 18t-2.5 38t-2 75t-1 128v181q1 13 3.5 29.5t5.5 33t6.5 31.5t8.5 27q18 48 50.5 62.5t84.5 14.5q11 0 23 -0.5t26 -1.5h6q27 -2 46 -14t33 -33l31 -31h-1l2 -1q17 -17 27.5 -42.5t16.5 -57t8 -66t2 -69.5q0 -11 -0.5 -22t-0.5 -22
q-1 -17 -1 -39q0 -21 -1 -45q-1 -49 -3 -104t-6 -104q-2 -33 -8.5 -54t-18.5 -34.5t-30 -22t-42 -15.5q-16 -1 -32.5 -1.5t-32.5 -0.5q-34 0 -64.5 6.5t-50.5 26.5zM361 414q1 50 -1 102.5t-12.5 95t-32.5 70.5t-61 30q-36 2 -65 2t-51 -6.5t-38 -21.5t-26 -42
q-9 -24 -15.5 -58.5t-8.5 -60.5v-180q0 -92 1 -141.5t2.5 -73.5t3.5 -32t3 -17q5 -34 24.5 -51t47 -23.5t60.5 -6t64 2.5q23 7 40 15t28 21t17.5 33t8.5 51q3 36 4.5 76.5t2.5 79.5t2 74t2 61z" />
    <glyph glyph-name="j" unicode="j" horiz-adv-x="719" 
d="M133 64q-41 30 -67 75.5t-26 111.5q0 33 9.5 63t29 52.5t50 36t71.5 13.5h14q23 -2 41 -12t34 -33l34 -33q8 -8 14 -17.5t13 -22.5q6 -12 7.5 -18t4.5 -14q0 -3 2 -7q14 1 24.5 12t10.5 37v2q0 12 -6 26.5t-14 31.5l-3 6l-2 4l-2 4q-11 23 -22.5 51t-16.5 63v12
q0 32 10 70.5t29.5 72.5t48 56.5t64.5 22.5q56 0 95 -19t62 -54l28 -28q54 -54 54 -167v-33v-39t1 -39q1 -18 1 -36v-36q0 -37 -2 -73t-8 -71q-15 -86 -73 -134t-177 -58q-5 -1 -24 -1q-24 0 -60 4t-76 15t-79.5 30.5t-70.5 50.5zM343 252q-10 0 -17 10.5t-12.5 25.5t-10 31
t-9.5 26q-17 33 -36 46t-44 15q-42 3 -73 -9t-51.5 -33.5t-30 -50.5t-9.5 -62q0 -59 23 -101t58.5 -70.5t79 -45.5t84 -25t73.5 -9.5t47 0.5q116 10 173 56.5t71 129.5q7 40 8.5 81t1 81.5t-1.5 81.5t0 82q0 100 -44 154t-138 54q-35 0 -62.5 -23.5t-45.5 -58t-27 -73
t-7 -68.5q4 -33 14.5 -60t22 -49.5t20.5 -42t9 -35.5q0 -20 -6 -33.5t-16 -20t-21.5 -7.5t-22.5 3z" />
    <glyph glyph-name="k" unicode="k" horiz-adv-x="778" 
d="M169 -27l-2 2l-39 38q-1 1 -2 1.5t-2 1.5q-2 1 -9 8t-15 17.5t-16.5 24t-12.5 28.5q-18 57 -24.5 118t-6.5 124q0 34 1 67.5t3 65.5q1 45 3 87q1 30 9 57t31 50q13 13 25 21.5t25 13.5t28 8t34 5q8 1 15 1.5t15 0.5q29 0 53 -12t46 -43l29 -29q19 -19 35 -51q2 -5 3 -10
t3 -13q3 4 5.5 7t5.5 7l41.5 51t45 46.5t48 33.5t51.5 13q38 0 68 -15.5t47 -42.5l33 -32q32 -32 32 -82q-5 -74 -40.5 -122t-85.5 -72l10 -10.5l10 -11.5l29 -28q32 -32 53.5 -75.5t29.5 -80.5q4 -17 4 -39q0 -32 -11 -58.5t-31 -46.5t-48.5 -31t-63.5 -11h-9q-35 2 -68 21
t-62 48l-21 20q-23 18 -44 41q-6 -30 -21.5 -55.5t-38 -43.5t-50 -28.5t-57.5 -10.5q-23 0 -45.5 6t-45.5 20zM718 591q0 51 -34.5 81.5t-88.5 30.5q-35 0 -67 -23t-61.5 -56t-56.5 -68.5t-52 -60.5q-3 19 -5.5 39.5t-5.5 38.5l-5.5 32t-5.5 20q-14 27 -29 43.5t-31.5 25
t-35.5 9.5t-40 -2q-36 -4 -59.5 -13t-46.5 -32q-20 -20 -28 -46t-9 -54q-1 -54 -4 -112t-2.5 -116.5t6.5 -117t24 -113.5q9 -28 24 -47t18 -21q45 -27 91 -24.5t82 25t58 61.5t20 87q14 -27 35.5 -56t47.5 -53t55.5 -40t59.5 -17q41 -2 72.5 11.5t52 37.5t28 57t-0.5 71
q-6 29 -21 63.5t-37.5 64t-51.5 49.5t-62 21q31 9 60 25.5t51.5 42t37 59t17.5 77.5z" />
    <glyph glyph-name="l" unicode="l" horiz-adv-x="636" 
d="M271 -1q-66 -5 -107.5 5t-66 31t-34.5 50t-12 62t0 67.5t2 65.5q0 15 -0.5 33t0 43.5t2 61.5t6.5 89v-1q8 188 162 192q75 2 116.5 -41.5t35.5 -137.5q0 -17 -1 -24.5t-3 -19t-3 -34t-1 -68.5l6 -30.5t6.5 -16.5t13.5 -9l26 -9q32 -2 51 -4t27 -4q27 -6 45.5 -25t29 -45
t13 -56.5t-3.5 -59t-20.5 -52t-37.5 -36.5q-21 -12 -48.5 -16.5t-59.5 -6t-69 -1.5q-36 0 -75 -3zM424 325v21q0 42 2 59.5t4 27.5q2 8 2 15v21q0 5 0.5 11t0.5 11q0 83 -42 125l-31 31q-20 31 -53 46t-77 15h-7q-82 -2 -124.5 -52t-47.5 -144q-5 -63 -7 -103.5t-2 -69.5
q0 -8 0.5 -14.5t0.5 -12.5v-32v-24t-1 -25t-1.5 -26t-0.5 -27q0 -50 12 -93t53 -69l30 -29q21 -21 56.5 -33.5t91.5 -12.5h18t20 1h1q25 2 48 2.5t45 0.5q49 1 89.5 4.5t71.5 20.5q33 18 49.5 56.5t16.5 80.5q0 35 -11 67.5t-33 54.5l-30 29q-12 20 -29 33.5t-40 18.5
q-8 2 -25.5 4t-47.5 4q0 2 -0.5 3.5t-1.5 3.5z" />
    <glyph glyph-name="m" unicode="m" horiz-adv-x="886" 
d="M799 629l-2 2zM388 625q17 -18 33 -42t33 -55l35 60t45 61.5t54 48t62 19.5q2 0 3 -0.5t3 -0.5h6q42 -6 67 -19t40 -38l33 -32q13 -13 22 -32t15.5 -45.5t11.5 -60.5l11 -78q5 -40 12 -87.5t17 -105.5v-1q1 -11 1.5 -20.5t0.5 -20.5q0 -44 -9 -85.5t-30 -73.5t-54.5 -52
t-81.5 -21h-4q-23 0 -41.5 8.5t-33.5 22.5l-32 32q-18 12 -32 30.5t-24.5 41.5t-17 49t-9.5 53q-10 -10 -20 -16t-22 -6q-11 0 -27 14t-33 31l-12 11q-6 4 -12 9.5l-13 12.5q2 -31 6 -62q2 -22 4.5 -44t2.5 -44q0 -32 -7.5 -60.5t-28.5 -49.5q-20 -17 -43.5 -24.5
t-47.5 -7.5q-35 0 -69.5 14t-60.5 40l-28 27q-30 21 -49.5 53t-20.5 73v6q-1 9 -1.5 24t-0.5 38t1 54.5t6 71.5q9 91 24 159t38.5 114t58 69.5t84.5 24.5h5q33 0 57.5 -16.5t47.5 -46.5zM834 267q-15 84 -23 147.5t-15 111t-15.5 79.5t-23 53t-37.5 32t-59 16
q-39 5 -73 -19.5t-61.5 -60.5t-48.5 -74.5l-33 -61.5l-48.5 89t-43 68t-45.5 42.5t-55 13.5q-47 -1 -80 -24t-55.5 -67.5t-36.5 -111.5t-23 -155q-9 -85 -7.5 -132t2.5 -61q1 -47 29 -82t67.5 -52.5t82.5 -15.5t75 30q22 22 28.5 55t4.5 69.5t-7 74.5t-5 70q11 -6 26 -20
l29.5 -28.5t27.5 -25.5t21 -11q16 0 28.5 12t24.5 28.5l24 33t26 26.5q-4 -26 -4.5 -59.5t3.5 -69t13.5 -69.5t25.5 -60.5t39.5 -42t55.5 -14.5q52 2 86 25.5t53 61t25 84.5t2 95z" />
    <glyph glyph-name="n" unicode="n" horiz-adv-x="849" 
d="M477 600l12.5 -14.5t13.5 -16.5v16q0 36 6.5 62.5t29.5 46.5q24 21 53.5 31t58.5 10q24 0 45.5 -6.5t38.5 -17.5v1q10 -8 18 -16.5t15 -18.5l35 -34q32 -33 42 -76t10 -87v-104q0 -62 -0.5 -111.5t-3.5 -90t-9.5 -75t-18.5 -66.5q-8 -21 -25.5 -38t-41 -28.5t-51 -18
t-55.5 -6.5q-35 0 -66.5 10t-53.5 32l-31 31q-6 4 -11 8t-10 9q-7 6 -22 30.5l-34 55.5q-2 -26 -7 -56t-16 -56t-28.5 -45t-44.5 -23q-17 -3 -50 -3t-70 8.5t-64 35.5l-30 29q-17 11 -30 26.5t-21 38.5q-12 32 -16 76.5t-4 86.5v26q0 13 1 24l3 170q2 34 8.5 66.5t17.5 53.5
q38 63 92 104.5t115 41.5q20 0 39.5 -4.5t38.5 -15.5l29 -16.5t24 -16.5t21.5 -19.5t21.5 -25.5zM370 230l29 -51l34 -59.5t31.5 -52t20.5 -28.5q28 -27 71 -35.5t85.5 -1t77.5 29t47 53.5q14 38 20.5 79.5t9 94t2.5 118.5v153q0 23 -2.5 46.5t-9.5 46t-19.5 42t-32.5 35.5
q-16 12 -39.5 18.5t-49.5 6t-52 -9.5t-47 -28q-27 -24 -30.5 -59t-1.5 -86q1 -25 2.5 -44t1.5 -26l-43 99q-17 29 -30.5 47.5t-27 31.5t-29 22.5t-36.5 20.5q-38 20 -76.5 19t-74 -19t-66.5 -49.5t-55 -71.5q-11 -20 -17 -52t-8 -64l-3 -170q-1 -23 -1 -51q0 -27 1.5 -55
t6 -55t12.5 -49q13 -36 40.5 -54t58.5 -25t60 -5.5t45 3.5q24 3 40.5 20.5t27 42t15.5 53t7.5 53.5t3 43t1.5 23z" />
    <glyph glyph-name="o" unicode="o" horiz-adv-x="805" 
d="M441 312q26 11 34.5 27t10.5 48q-2 10 -4 16q-5 2 -10 3t-10 1q-2 0 -10 -2h-5q-29 0 -48.5 -23t-19.5 -52v-12q0 -5 2 -10q12 -3 24 -3q17 0 36 7zM180 67q-67 53 -103.5 131t-36.5 163q0 48 13 96t39.5 92t68 81.5t98.5 66.5q32 18 66.5 26.5t72.5 8.5q42 0 85.5 -10.5
t83 -30.5t74.5 -48t61 -63l16 -15q32 -33 54.5 -72.5t30.5 -85.5q5 -21 6.5 -41.5t1.5 -41.5q0 -80 -29 -149t-78.5 -120t-115 -80.5t-137.5 -29.5q-46 0 -89 12q-48 12 -89 35.5t-73 55.5zM496 389q-2 -35 -11 -54t-40 -32q-14 -6 -30 -7.5t-31 1.5t-27 11t-17 20
q-16 21 -17.5 45t8 44t28 33t41.5 12q11 3 27.5 -0.5t31.5 -13.5t26 -25.5t11 -36.5v3zM746 456q-8 51 -35 95t-66.5 78t-88 56.5t-99.5 31t-101 2t-93 -30.5q-83 -41 -131.5 -102t-68 -129.5t-10.5 -139.5t42 -132t89 -107t130 -64q62 -17 122 -10t112.5 33t95.5 68.5
t70.5 97.5t36.5 119.5t-5 133.5z" />
    <glyph glyph-name="p" unicode="p" horiz-adv-x="718" 
d="M407 468q-40 -3 -44 -39q14 2 28 10t16 29zM96 14q-20 13 -33 35t-14 56q0 5 -0.5 9t-0.5 9q-2 29 -3 49t-2 34q-2 22 -2 32v18v139q0 39 0.5 64t4.5 45t12.5 40t23.5 48q21 38 52 63.5t68.5 40.5t80.5 21t90 6q84 0 155.5 -27.5t111.5 -83.5l26 -25q28 -28 43.5 -64.5
t15.5 -84.5v-12q0 -5 -1 -10q-4 -46 -13.5 -78.5t-29 -55.5t-51 -40t-79.5 -32q-28 -8 -65.5 -14t-76.5 -8q-3 -9 -3 -16t2 -16.5t4 -22.5q0 -2 0.5 -3.5t0.5 -3.5q3 -14 5 -28.5t2 -29.5q0 -32 -12 -58.5t-44 -39.5q-12 -7 -48.5 -16.5t-80.5 -9.5q-29 0 -56.5 7.5
t-47.5 27.5zM417 467q-2 -18 -10 -27.5t-19 -14.5t-23 -6t-21 -1q-38 0 -38 52q0 55 56 55q11 0 21 -6t17.5 -14.5t12 -18.5t4.5 -19zM667 467q5 63 -17.5 109t-63.5 76.5t-96.5 45.5t-116.5 15q-45 0 -87.5 -6t-79 -20t-66 -38.5t-49.5 -60.5q-17 -30 -25 -50.5
t-11.5 -42.5t-3.5 -52v-77v-63v-27v-15q0 -6 0.5 -13.5t1 -23.5t2.5 -44t4 -75q1 -30 12 -50t29 -32t40 -17t45 -5q24 0 46.5 3t40 7t28 8t11.5 7q22 9 33.5 25t15.5 36.5t2.5 43t-6.5 44.5q-5 26 -7 40.5t5 29.5q39 2 77.5 8t67.5 14q46 15 77 31.5t50 39t28.5 53.5
t12.5 76z" />
    <glyph glyph-name="q" unicode="q" horiz-adv-x="823" 
d="M467 386q0 4 -1 7q-10 2 -16 2q-17 0 -30 -6.5t-21 -16.5t-12 -22.5t-4 -24.5v-8q0 -4 1 -9q3 -1 11 -1q37 0 54.5 24.5t17.5 54.5zM176 49q-35 25 -61 62t-42.5 81.5t-24.5 95t-8 102.5q0 70 29.5 130t76.5 105.5t105 74t116 35.5q19 3 55 3q21 0 45 -1.5t47.5 -5.5
t45 -11t38.5 -17q28 -17 53.5 -40.5t47.5 -51.5l13 -13q31 -31 54.5 -67.5t36.5 -74.5q12 -33 16.5 -63t4.5 -56q0 -44 -10.5 -77.5t-19.5 -56.5l-4 -10t-4 -12l7 -12q2 -5 6 -11l9 -14l1 -1q11 -14 15.5 -28t4.5 -27q0 -23 -12.5 -43.5t-32.5 -38.5t-45 -32.5t-49.5 -24.5
t-46 -15.5t-34.5 -5.5q-20 0 -34.5 7t-26.5 19l-33 33q-26 -17 -58.5 -24.5t-64.5 -7.5q-48 0 -92 13t-72 33q-15 11 -30 26zM477 386q0 -17 -5 -32.5t-15 -28.5t-25.5 -20.5t-36.5 -7.5q-23 0 -36.5 9t-20.5 22t-9.5 26t-2.5 21q0 13 4.5 26.5t13.5 25t23 18.5t33 7
q12 0 25.5 -5.5t25 -14.5t19 -21t7.5 -25zM753 189q-11 20 -17.5 30t-6.5 13q5 16 15.5 40.5t17.5 57.5t5 76.5t-21 97.5q-20 55 -61 107t-93 83q-23 14 -54.5 21.5t-63 10.5t-60 2t-46.5 -3q-56 -7 -113 -34.5t-102.5 -71.5t-74 -102.5t-28.5 -126.5q0 -51 8 -100t24 -92.5
t41 -79.5t59 -61q24 -17 60.5 -29t77 -15t80.5 5t71 32q20 -29 38.5 -47t49.5 -18q15 0 41.5 7.5t55 21t55.5 32t43.5 41t18 48.5t-19.5 54z" />
    <glyph glyph-name="r" unicode="r" horiz-adv-x="799" 
d="M433 467q0 4 -1 6q-6 2 -9 2q-18 0 -35.5 -14t-17.5 -31v-18q5 -1 16 -1q21 0 34 16.5t13 39.5zM712 226q4 -5 5.5 -8t3.5 -5l-30 29l4 -4l29 -28l10 -12.5l9 -11.5l30.5 -40.5t19.5 -29.5t10 -25t3 -28q0 -47 -25 -69q-9 -8 -36.5 -16.5t-58.5 -15t-59 -10.5t-40 -4
q-2 0 -5 -0.5t-5 -0.5q-20 0 -41 9t-35 23l-35 34q-26 18 -34 41h4l-19 28.5t-22 35.5q-1 -12 -1.5 -22t-0.5 -20q-1 -31 -3 -55.5t-11 -41t-27.5 -25t-52.5 -8.5h-27q-51 0 -86.5 3.5t-57.5 25.5l-35 34q-23 13 -36 41.5t-15 82.5q-1 15 -1 32v34q0 58 5.5 124.5
t20.5 128.5t40.5 115t65.5 86q45 37 95.5 53t104.5 16q50 0 95 -12q78 -23 126.5 -49.5t74.5 -63.5l26 -27q0 1 -1 1v0l3 -2q26 -26 37.5 -59t11.5 -78q0 -26 -4.5 -46t-12 -36t-16.5 -28.5t-18 -23.5q-13 -14 -19 -27q1 -3 10 -14.5l20 -24.5zM443 467q0 -28 -15.5 -47
t-41.5 -19q-73 0 -73 79q0 10 5.5 19.5t14.5 16.5t19.5 11.5t20.5 4.5q24 0 47 -17.5t23 -47.5zM749 113q0 16 -3.5 28.5t-12 27t-23 33.5l-36.5 48q-3 4 -12 15l-18.5 23l-17 22t-7.5 12q7 14 19 27.5t23 31t19.5 42t8.5 59.5q0 44 -12 76.5t-39 58t-69.5 45.5t-103.5 38
q-36 10 -73.5 12t-74.5 -4.5t-72.5 -21.5t-65.5 -40q-45 -37 -71.5 -100t-39.5 -135.5t-16 -146t0 -131.5q2 -52 15.5 -79t38 -38t60.5 -12t83 -1q42 0 59.5 15t23 43.5t5 70t7.5 94.5q10 -21 27 -50.5l32.5 -56.5l27.5 -46.5l12 -19.5v1q4 -11 14 -20.5t23 -16.5t28 -10.5
t29 -1.5q12 0 39.5 4t57.5 10t56.5 14t35.5 16q23 20 23 64z" />
    <glyph glyph-name="s" unicode="s" horiz-adv-x="674" 
d="M194 379q-35 23 -52.5 59t-17.5 77q0 39 14.5 76.5t43.5 64.5q39 39 83 55.5t92 16.5q29 0 60 -5.5t63 -16.5q38 -15 64 -33t42 -42l31 -31q5 -5 9 -10.5l8 -10.5q27 -36 27 -91q0 -43 -22.5 -71t-73.5 -38h-1q-3 -1 -7 -1h-6q-20 0 -38.5 7.5t-27.5 11.5q-7 -7 -9 -14
q3 -1 5.5 -1.5t6.5 -1.5q27 -6 60 -26.5t56 -54.5l26 -25q22 -22 36.5 -51.5t14.5 -66.5q0 -47 -14 -80t-36 -56t-48 -37t-51 -21.5t-46 -10.5t-31 -4q-6 0 -7 -1h-1q-10 -2 -22 -3t-27 -1q-28 0 -61.5 4t-68 14t-66.5 26.5t-57 40.5l-28 28q-31 23 -51.5 55.5t-24.5 77.5
v12q0 40 19.5 71t50.5 42q10 3 25 3q24 0 49 -6.5t47 -14.5q10 -4 14 -5q28 -10 32 -10q14 0 24.5 5.5t14.5 16.5q-6 2 -12 4.5l-13 5.5q-22 5 -39 15t-31 24zM433 455q0 1 7 -3t18.5 -8.5t26 -7.5t28.5 0q48 9 69.5 35.5t21.5 66.5q0 52 -26 87q-16 23 -41 40.5t-60 31.5
q-39 13 -77 18.5t-75 1t-71 -20.5t-65 -47q-31 -30 -45 -73t-8 -85t32 -76t76 -46q84 -30 84 -60q0 -17 -15 -28t-35 -11q-7 0 -26.5 7.5t-44 15t-50 12t-43.5 -1.5q-30 -10 -48 -41.5t-15 -72.5q4 -45 25.5 -77t53.5 -54t70.5 -34.5t75.5 -18.5t69 -6t52 4q3 1 21.5 2.5
t43.5 8t53.5 19t52.5 35t40 56t16 82.5q0 35 -14 63.5t-35 49.5t-45.5 33.5t-44.5 17.5q-32 7 -46.5 19t-18.5 25t0.5 24t12.5 17z" />
    <glyph glyph-name="t" unicode="t" horiz-adv-x="801" 
d="M95 419q-28 15 -41 47.5t-13 80.5v12q1 43 15 71t35 45.5t46 25t48 9.5h-1l30 5t60 8t80.5 7.5t92.5 3.5q44 0 88 -4.5t83 -15t70.5 -28t49.5 -44.5l33 -32q36 -36 36 -91v-10q0 -36 -6 -60.5t-14 -43.5q-9 -20 -27.5 -31t-42 -16t-48 -6t-44.5 -1q-15 0 -20 -16.5
t-5 -42.5q0 -20 2.5 -42.5t4.5 -44.5q2 -18 3.5 -34.5t1.5 -29.5v-6q0 -50 -2.5 -84.5t-14.5 -56.5t-38 -33t-73 -13q-11 -1 -21 -1h-19q-43 0 -78.5 8t-58.5 31l-32 31q-23 14 -37.5 38.5t-18.5 65.5q3 47 6 83.5t5 64.5q1 22 3 39q1 8 1 15t1 13q1 9 1.5 16t0.5 13
q-2 0 -4.5 -0.5t-3.5 -0.5q-17 -3 -35 -3q-41 0 -66 25zM750 559q3 46 -18 76.5t-58 49.5t-86 27.5t-101 10.5t-103 -1t-93 -7.5t-70 -9t-35 -5.5q-22 -2 -45 -9t-42.5 -23t-33 -42.5t-14.5 -66.5q-2 -66 20 -103.5t73 -37.5q16 0 31 3t27 3q13 0 24 -5.5t19 -21.5
q3 -3 3 -14q0 -10 -2.5 -39t-6.5 -81.5t-10 -140.5q4 -42 21.5 -66.5t45 -36.5t63 -14t75.5 0q45 2 69.5 12.5t36 32t13.5 54.5t2 81v6q0 24 -5 60.5t-6.5 71.5t4 60t27.5 25q19 0 43 1t46.5 5.5t40.5 15t26 28.5t13.5 42t5.5 59z" />
    <glyph glyph-name="u" unicode="u" horiz-adv-x="845" 
d="M456 0q-21 0 -44 -0.5t-49 1.5t-55.5 9.5t-65.5 22.5q-54 23 -90.5 57.5t-59 79.5t-32.5 101t-10 122q0 40 6 81t15.5 77t21.5 64.5t24 42.5q21 24 40.5 36t39 17t38.5 4.5t39 -2.5q36 -3 59.5 -17.5t37 -38.5t18.5 -57.5t5 -74.5q0 -18 -3 -42.5t-3 -62.5q0 -30 15 -43
t38 -13q17 0 30.5 13t18.5 43q3 4 1.5 27.5l-3.5 53t-2 57.5t6 43q4 28 21.5 47.5t41.5 32.5t52 19t53 6q13 0 32 -5t37.5 -20t33.5 -43t20 -74q7 -69 10.5 -136.5t-5 -130t-33.5 -119.5t-74 -106q-21 -21 -48 -34t-57 -21t-61 -11.5t-59 -5.5zM449 440q1 10 1.5 18.5
t0.5 16.5q0 54 -9 94.5t-34 65.5l-32 31q-15 24 -39 38t-62 19q-10 1 -20 1.5t-20 0.5q-32 0 -62.5 -11t-62.5 -49q-13 -15 -25.5 -44t-22.5 -66t-16 -79t-6 -83q0 -112 28 -193.5t97 -134.5l23 -22q39 -39 101 -66q53 -23 93 -28.5t74 -5.5h50q28 2 59.5 5.5t62 11.5
t58.5 21.5t50 35.5q68 68 92 150.5t24 174.5q0 43 -3.5 85.5t-8.5 87.5q-5 42 -17.5 69t-29.5 44l-31 31q-24 35 -53.5 46t-48.5 11q-26 0 -55.5 -6.5t-55 -20t-44 -34.5t-23.5 -50q-6 -17 -6 -51q0 -18 1 -37t3 -36v-3q1 -12 1.5 -23t0.5 -19q0 -10 -2 -12
q-5 -26 -14.5 -37t-20.5 -13q0 20 1 36t3 30z" />
    <glyph glyph-name="v" unicode="v" horiz-adv-x="857" 
d="M407 584l17 -18.5t17 -20.5l18 30t21.5 34t23.5 33t23 27q29 29 58.5 41t58.5 12q42 0 77.5 -20t58.5 -47l5.5 -7.5t4.5 -7.5l38 -37q17 -20 26 -51.5t9 -68.5v-5q0 -21 -3.5 -57t-25.5 -95l-25.5 -62.5t-37.5 -79.5t-50.5 -83.5t-64 -74.5t-78.5 -54t-93 -21h-13t-11 1
q-32 8 -77.5 30.5t-96.5 73.5l-4 4q-29 21 -59 52.5t-59.5 75t-58 101t-53.5 131.5q-2 7 -7.5 32.5t-5.5 61.5q0 23 4 48.5t14 50.5t28 47t46 39q20 12 37 14.5t31 2.5h12q19 0 41 -8t45 -23t46 -35.5t43 -45.5zM806 533q0 35 -8 65t-25 50q-19 22 -46 39.5t-59 23t-66.5 -5
t-67.5 -43.5q-15 -15 -32 -39t-31.5 -47.5t-24.5 -42t-13 -22.5q-17 40 -44.5 76t-58 62.5t-62.5 42t-58 14.5q-15 -1 -32 -1.5t-40 -14.5q-47 -29 -65.5 -71t-21.5 -83t3 -73t9 -40q41 -120 89.5 -196.5t96.5 -122.5t91.5 -67t73.5 -28q52 -5 96.5 13t82 50.5t67.5 74.5
t52.5 84.5t39 81.5t25.5 65q23 63 26 99t3 56z" />
    <glyph glyph-name="w" unicode="w" horiz-adv-x="1008" 
d="M572 460q10 -10 21 -29q5 42 14 86.5t29 80.5q8 20 24.5 44t48.5 44q24 14 39.5 17t32.5 3h23q35 0 69 -16.5t60 -53.5l27 -27q16 -16 29 -38.5t22 -51.5v-1q2 -13 3 -28.5t1 -33.5q0 -32 -6 -65q-10 -39 -19.5 -71t-22 -64.5t-30 -67.5t-43.5 -80q-17 -29 -35.5 -56.5
t-40 -49.5t-45.5 -35.5t-50 -13.5h-1q-17 0 -48 15.5t-62 46.5l-25 24q-15 12 -30 27q-12 -18 -29.5 -39t-38 -38.5t-42.5 -29.5t-44 -12q-15 0 -30 7q-36 16 -72 52l-16 16q-42 30 -79.5 81t-67.5 111t-52 122t-35 113q-11 39 -11 84q0 32 7.5 61.5t26.5 54.5
q12 18 29 31.5t35.5 22.5t38 13t37.5 4h9q37 -2 72 -16.5t64 -55.5l27 -27q27 -27 46 -72q18 -45 22 -78q11 22 23.5 37.5t24.5 15.5l1 -1h4q9 -2 18 -11t17 -23zM954 567q-11 36 -28.5 61t-38.5 40.5t-44 22t-46 5.5q-20 0 -36.5 -1t-45.5 -18q-30 -20 -46 -43t-24 -41
q-14 -24 -22.5 -54t-13.5 -61t-7.5 -61t-5.5 -54q-8 10 -18.5 33.5l-22.5 48.5t-25 45t-26 23q-10 4 -23 -16.5t-25.5 -48t-22 -53.5t-11.5 -32q-11 37 -14.5 65t-5.5 53.5t-7 52.5t-19 62q-14 33 -31 54.5t-37 34.5t-41.5 18.5t-43.5 6.5q-34 2 -75 -14t-66 -53
q-29 -40 -31 -92t10 -99q9 -38 24 -81.5t33.5 -88t41.5 -87.5t49.5 -79.5t55.5 -64t61 -41.5q28 -12 56.5 0t54.5 35.5t46.5 51t32.5 46.5q15 -32 36.5 -57t44 -42t43 -25.5t32.5 -8.5q25 0 48.5 13t44 35t39 49t34.5 55q25 44 42.5 79t30 67.5t22 64.5t19.5 70q7 36 5.5 68
t-3.5 56z" />
    <glyph glyph-name="x" unicode="x" horiz-adv-x="881" 
d="M412 634l28.5 -35t34.5 -47q29 44 57.5 73t53.5 47t46 26.5t36 10.5h2q5 1 9.5 1.5t9.5 0.5q38 0 71.5 -20t53.5 -52l26 -25q21 -21 34 -49t13 -60v-8q0 -3 -0.5 -6t-0.5 -6q-1 -8 -2 -17t-4.5 -19.5t-11 -23.5t-20.5 -30q-12 -16 -28.5 -29.5t-34 -24t-35 -18
l-31.5 -13.5q18 -11 33.5 -23t23.5 -25q2 -3 5 -6t5 -6l26 -26q5 -5 11 -13l-1 1q29 -32 39.5 -61.5t10.5 -57.5q0 -21 -3 -37q-3 -17 -11.5 -33.5t-21 -30t-27.5 -23.5t-30 -15q-11 -3 -23.5 -5t-28.5 -2q-38 0 -81.5 14.5t-76.5 47.5l-27 26q-17 12 -31 27.5t-25 35.5
l-4 8q-2 3 -4 6.5t-4 7.5q-2 -2 -2 -3l-37.5 -52t-44.5 -56q-29 -32 -56.5 -49t-65.5 -17q-14 0 -27 2t-29 6q-18 5 -36 16.5t-33 26.5l-23 23q-25 17 -43.5 40t-26.5 45q-9 27 -9 51q0 27 9.5 48t26.5 45q14 20 49.5 47t96.5 68q-17 9 -33.5 19t-30.5 24l-28 28
q-14 9 -25 20.5t-19 25.5q-22 40 -22 83q0 70 55 120q19 18 54 32.5t74 14.5q27 0 54 -7t52 -26q5 -4 14.5 -14.5l21.5 -24.5l18 -19q-1 2 -2 2.5t-2 1.5zM830 547q2 33 -11 62.5t-35.5 51.5t-52.5 32.5t-62 5.5q-15 -2 -37.5 -11.5t-49.5 -30.5t-57.5 -55.5t-60.5 -86.5
q-4 18 -20 45t-34.5 53.5t-36 47t-25.5 26.5q-29 21 -61.5 27t-62.5 2.5t-54.5 -14t-37.5 -23.5q-45 -37 -55 -90.5t19 -106.5q12 -23 34.5 -37.5t46 -26.5l44.5 -23.5t31 -26.5q-71 -46 -112 -77t-55 -51q-23 -32 -31.5 -62t6.5 -73q5 -14 15.5 -29.5t24.5 -29t30.5 -24
t33.5 -14.5q31 -8 55 -8t43.5 7.5t37 22t35.5 34.5t36 44l33 45l24.5 35t10.5 13q3 0 10 -11.5t15.5 -27t16.5 -32.5t14 -28q19 -35 49 -56t63 -31t65 -10.5t55 6.5q14 4 28 13.5t26 22.5t20 28t11 32q3 16 3.5 34t-4 36.5t-15 38.5t-29.5 41q-11 16 -33 31.5t-44.5 28
l-39 22t-16.5 14.5q0 3 18.5 9.5t44 18t52 28.5t43.5 40q15 19 22.5 33.5t10.5 25.5t3.5 20.5t1.5 18.5z" />
    <glyph glyph-name="y" unicode="y" horiz-adv-x="878" 
d="M162 372l12 -12v1zM231 271q-8 31 -29.5 56t-47.5 50l-34.5 35.5t-32.5 39.5t-27 45.5t-18 54.5q-1 5 -1.5 10t-0.5 12q0 24 10.5 50.5t30 48t47.5 35.5t64 14h10t10 -1q18 -2 34.5 -6t32.5 -13t32.5 -24t35.5 -39l20 -19q22 -22 49 -61q5 -8 13 -24l16 -32q0 -3 2 -5
q7 5 13.5 16t11.5 24t9.5 27l8.5 26q1 1 1 2q1 2 2 6t3 9q14 40 31 62t37.5 33.5t43 14t48.5 3.5h8q30 0 55.5 -7t46 -18t35 -24.5t22.5 -26.5l31 -30q12 -12 19 -26q12 -23 12 -46q0 -24 -10 -50t-26.5 -52t-38 -53.5l-43.5 -54.5l-30.5 -38.5t-28.5 -38.5h-1q-2 -6 -5 -12
q-7 -11 -16.5 -33t-13.5 -60q-6 -59 -22.5 -99t-41 -65.5t-54.5 -36.5t-62 -11q-44 0 -90 20q-22 9 -38 25l-32 31q-20 12 -33 30t-21.5 40t-15 48.5t-12.5 56.5q-8 40 -19 81zM241 274q12 -47 20 -88t18.5 -75t27.5 -58.5t48 -37.5q40 -17 83 -19t80 18t63.5 65.5
t33.5 122.5q3 27 9 46t12 31.5t11 19.5t5 11q31 43 67.5 86.5t64.5 85t39.5 80.5t-6.5 74q-6 12 -20 26t-34.5 25t-47 18t-59.5 6q-24 -1 -45.5 -3.5t-40.5 -13t-35 -31t-29 -57.5q-4 -12 -10 -32.5t-14.5 -40.5t-20 -34.5t-26.5 -14.5q-8 0 -17 13.5t-18.5 32.5l-19.5 40
t-20 35q-23 33 -41.5 53t-35.5 31t-34.5 15.5t-37.5 6.5q-42 5 -74 -9.5t-52.5 -39t-29 -54t-3.5 -54.5q10 -52 37.5 -88.5t58 -67.5l57.5 -59.5t36 -64.5z" />
    <glyph glyph-name="z" unicode="z" horiz-adv-x="831" 
d="M702 356q-9 -6 -17 -10h4q38 -7 58 -17t28 -29l36 -35q15 -14 18.5 -38.5t6.5 -62.5q1 -8 1 -17v-16q0 -52 -13.5 -87.5t-38 -57t-60.5 -31t-81 -9.5h-21q-17 0 -38.5 -1t-47.5 -3l-73.5 -4t-79.5 -2q-51 0 -99.5 4.5t-88.5 16.5q-47 15 -72 40l-31 30q-53 35 -53 94
q0 11 1 16q4 21 19.5 46.5t39 52.5t52.5 54.5t59 52.5q-21 2 -39 8t-30 19l-35 34q-17 10 -27.5 26.5t-10.5 43.5q0 30 8.5 64t24.5 65.5t39 56t53 35.5q12 4 33 7t48.5 4.5t59.5 2.5t65 1q34 0 66.5 -0.5t60 -2t49 -3t32.5 -2.5q40 -5 72 -26t52 -51l27 -26
q23 -23 35.5 -51t12.5 -58q0 -24 -7 -44q-11 -29 -37 -49.5t-61 -40.5zM779 213q-2 31 -5 52t-11.5 35t-26 22.5t-48.5 13.5q-8 1 -30.5 -1t-48 -5t-48.5 -5t-32 0q34 33 68 55l63.5 40t51.5 36t31 42q12 31 6 63.5t-25.5 60t-49.5 46.5t-67 24q-15 2 -46.5 4t-72 3t-85.5 1
q-44 0 -84.5 -1.5t-73 -4.5t-48.5 -9q-28 -10 -50 -33.5t-37 -53.5t-23 -62.5t-8 -61.5q0 -28 13.5 -43.5t35 -22.5t48.5 -7.5t54.5 2.5t51.5 7t41 6q-34 -23 -79 -58t-86 -74t-71.5 -78.5t-35.5 -70.5q-5 -42 19 -73t78 -48q49 -15 112.5 -18.5t125.5 -1.5t115 6t82 3
q49 -1 87.5 9t64 34.5t37 65t7.5 101.5z" />
    <glyph glyph-name="quotedblleft" unicode="&#x201c;" horiz-adv-x="518" 
d="M241 612q-8 -37 -39 -56t-68 -11q-18 4 -36.5 17t-31 32t-16 41t8.5 43q32 58 64.5 95t53 46t23 -14t-25.5 -84q38 -9 57.5 -40.5t9.5 -68.5zM464 612q-8 -37 -39 -56t-68 -11q-18 4 -36.5 17t-31 32t-16 41t8.5 43q32 58 64.5 95t53 46t23 -14t-25.5 -84
q38 -9 57.5 -40.5t9.5 -68.5zM257 753q0 13 -7 20l-42 41q-5 17 -21 17q-10 0 -25.5 -10.5t-34 -29.5t-38.5 -47t-39 -62v1q-10 -17 -10 -39q0 -29 17.5 -55t40.5 -41l29 -28q11 -13 26 -21t29 -11q5 -2 11 -2h12q32 0 58.5 19.5t34.5 54.5q0 4 1 6q11 -11 22 -18l29 -28
q11 -13 26 -21t29 -11q5 -2 11 -2h12q32 0 58.5 19.5t34.5 54.5q3 12 3 25q0 40 -28 68l-34 34q10 23 14 39t4 27q0 13 -7 20l-42 41q-5 17 -21 17q-10 0 -25.5 -10.5t-34 -29.5t-38.5 -47t-39 -62v1q-6 -10 -9 -23l-25 27q10 23 14 39t4 27z" />
    <glyph glyph-name="quotedblright" unicode="&#x201d;" horiz-adv-x="518" 
d="M277 749q8 37 39 56t68 11q18 -4 36.5 -17t31 -32t16 -41t-8.5 -43q-32 -58 -64.5 -95t-53 -46t-23 14t25.5 84q-38 9 -57.5 40.5t-9.5 68.5zM54 749q8 37 39 56t68 11q18 -4 36.5 -17t31 -32t16 -41t-8.5 -43q-32 -58 -64.5 -95t-53 -46t-23 14t25.5 84
q-38 9 -57.5 40.5t-9.5 68.5zM41 726q0 -23 11 -44.5t31 -35.5l20 -20q-10 -23 -14 -40t-4 -28q0 -25 17 -28l43 -42q5 -5 13 -5q20 0 58 39t76 108q7 12 8 21l1 -1q1 0 2 -1l23 -23q-10 -23 -14 -40t-4 -28q0 -25 17 -28l43 -42q5 -5 13 -5q20 0 58 39t76 108q10 17 10 37
t-9.5 39.5t-24.5 34.5l-32 31q-14 20 -33 34t-38 19v1q-5 2 -12 2h-13q-34 0 -61 -20t-35 -55q-2 -6 -2 -9l-29 28q-14 20 -33 34t-38 19v1q-5 2 -12 2h-13q-34 0 -61 -20t-35 -55q-3 -12 -3 -27z" />
    <glyph glyph-name="visiblespace" 
 />
    <glyph glyph-name="FL0091" 
 />
    </font>
</defs>
</svg>
