{
	"asset":{
		"generator":"Khronos glTF Blender I/O v4.1.63",
		"version":"2.0"
	},
	"scene":0,
	"scenes":[
		{
			"name":"Scene",
			"nodes":[
				0,
				1,
				2,
				3,
				4,
				5,
				6,
				7,
				8
			]
		}
	],
	"nodes":[
		{
			"mesh":0,
			"name":"brushed",
			"rotation":[
				0,
				-0.9396926760673523,
				0,
				0.3420201241970062
			],
			"translation":[
				0.004428796470165253,
				0,
				-0.008812001906335354
			]
		},
		{
			"mesh":1,
			"name":"glass",
			"rotation":[
				0,
				-0.9396926760673523,
				0,
				0.3420201241970062
			],
			"translation":[
				0.004428796470165253,
				0,
				-0.008812001906335354
			]
		},
		{
			"mesh":2,
			"name":"parts2",
			"rotation":[
				0,
				-0.9396926760673523,
				0,
				0.3420201241970062
			],
			"translation":[
				0.004428796470165253,
				0,
				-0.008812001906335354
			]
		},
		{
			"mesh":3,
			"name":"body",
			"rotation":[
				0,
				-0.9396926760673523,
				0,
				0.3420201241970062
			],
			"translation":[
				0.004428796470165253,
				0,
				-0.008812001906335354
			]
		},
		{
			"mesh":4,
			"name":"parts1",
			"rotation":[
				0,
				-0.9396926760673523,
				0,
				0.3420201241970062
			],
			"translation":[
				0.004428796470165253,
				0,
				-0.008812001906335354
			]
		},
		{
			"mesh":5,
			"name":"connector",
			"rotation":[
				0,
				-0.9396926760673523,
				0,
				0.3420201241970062
			],
			"translation":[
				0.004428796470165253,
				0,
				-0.008812001906335354
			]
		},
		{
			"mesh":6,
			"name":"camera",
			"rotation":[
				0,
				-0.9396926760673523,
				0,
				0.3420201241970062
			],
			"translation":[
				0.004428796470165253,
				0,
				-0.008812001906335354
			]
		},
		{
			"mesh":7,
			"name":"design",
			"rotation":[
				-0.24184472858905792,
				-0.6644629836082458,
				-0.6644631028175354,
				0.24184468388557434
			],
			"translation":[
				0.004428796470165253,
				0,
				-0.008812001906335354
			]
		},
		{
			"mesh":8,
			"name":"case",
			"rotation":[
				-0.24184472858905792,
				-0.6644630432128906,
				-0.6644630432128906,
				0.24184472858905792
			],
			"translation":[
				0.004428796470165253,
				0,
				-0.008812001906335354
			]
		}
	],
	"materials":[
		{
			"doubleSided":true,
			"name":"brushed",
			"normalTexture":{
				"index":0,
				"scale":0.30000001192092896
			},
			"pbrMetallicRoughness":{
				"baseColorTexture":{
					"index":1
				},
				"metallicRoughnessTexture":{
					"index":2
				}
			}
		},
		{
			"doubleSided":true,
			"name":"glass",
			"pbrMetallicRoughness":{
				"baseColorTexture":{
					"index":3
				},
				"metallicFactor":0,
				"roughnessFactor":0.10000000149011612
			}
		},
		{
			"doubleSided":true,
			"name":"body",
			"normalTexture":{
				"index":4
			},
			"pbrMetallicRoughness":{
				"baseColorTexture":{
					"index":5
				},
				"metallicRoughnessTexture":{
					"index":6
				}
			}
		},
		{
			"doubleSided":true,
			"name":"Alu",
			"pbrMetallicRoughness":{
				"baseColorFactor":[
					0.7491165995597839,
					0.7491165995597839,
					0.7491165995597839,
					1
				],
				"metallicFactor":0,
				"roughnessFactor":0
			}
		},
		{
			"doubleSided":true,
			"name":"connector",
			"pbrMetallicRoughness":{
				"baseColorFactor":[
					0.7491165995597839,
					0.7491165995597839,
					0.7491165995597839,
					1
				],
				"roughnessFactor":0.20000000298023224
			}
		},
		{
			"alphaCutoff":0.5,
			"alphaMode":"MASK",
			"doubleSided":true,
			"name":"design",
			"pbrMetallicRoughness":{
				"baseColorTexture":{
					"index":7
				},
				"metallicFactor":0.20000000298023224,
				"roughnessFactor":0.800000011920929
			}
		},
		{
			"alphaMode":"BLEND",
			"doubleSided":true,
			"name":"case",
			"pbrMetallicRoughness":{
				"baseColorFactor":[
					1,
					1,
					1,
					0.3500000238418579
				],
				"roughnessFactor":0.07999999821186066
			}
		}
	],
	"meshes":[
		{
			"name":"brushed",
			"primitives":[
				{
					"attributes":{
						"POSITION":0,
						"NORMAL":1,
						"TEXCOORD_0":2
					},
					"indices":3,
					"material":0
				}
			]
		},
		{
			"name":"glass",
			"primitives":[
				{
					"attributes":{
						"POSITION":4,
						"NORMAL":5,
						"TEXCOORD_0":6
					},
					"indices":7,
					"material":1
				}
			]
		},
		{
			"name":"parts2",
			"primitives":[
				{
					"attributes":{
						"POSITION":8,
						"NORMAL":9,
						"TEXCOORD_0":10
					},
					"indices":11,
					"material":0
				}
			]
		},
		{
			"name":"body",
			"primitives":[
				{
					"attributes":{
						"POSITION":12,
						"NORMAL":13,
						"TEXCOORD_0":14
					},
					"indices":15,
					"material":2
				}
			]
		},
		{
			"name":"parts1",
			"primitives":[
				{
					"attributes":{
						"POSITION":16,
						"NORMAL":17,
						"TEXCOORD_0":18
					},
					"indices":19,
					"material":3
				}
			]
		},
		{
			"name":"connector",
			"primitives":[
				{
					"attributes":{
						"POSITION":20,
						"NORMAL":21,
						"TEXCOORD_0":22
					},
					"indices":23,
					"material":4
				}
			]
		},
		{
			"name":"camera",
			"primitives":[
				{
					"attributes":{
						"POSITION":24,
						"NORMAL":25,
						"TEXCOORD_0":26
					},
					"indices":27,
					"material":1
				}
			]
		},
		{
			"name":"design",
			"primitives":[
				{
					"attributes":{
						"POSITION":28,
						"NORMAL":29,
						"TEXCOORD_0":30
					},
					"indices":31,
					"material":5
				}
			]
		},
		{
			"name":"case",
			"primitives":[
				{
					"attributes":{
						"POSITION":32,
						"NORMAL":33,
						"TEXCOORD_0":34
					},
					"indices":35,
					"material":6
				}
			]
		}
	],
	"textures":[
		{
			"sampler":0,
			"source":0
		},
		{
			"sampler":0,
			"source":1
		},
		{
			"sampler":0,
			"source":2
		},
		{
			"sampler":0,
			"source":3
		},
		{
			"sampler":0,
			"source":4
		},
		{
			"sampler":0,
			"source":5
		},
		{
			"sampler":0,
			"source":6
		},
		{
			"sampler":1,
			"source":7
		}
	],
	"images":[
		{
			"mimeType":"image/jpeg",
			"name":"Image_0",
			"uri":"Image_0.jpg"
		},
		{
			"mimeType":"image/jpeg",
			"name":"Image_1",
			"uri":"Image_1.jpg"
		},
		{
			"mimeType":"image/jpeg",
			"name":"Image_2",
			"uri":"Image_2.jpg"
		},
		{
			"mimeType":"image/jpeg",
			"name":"Image_3",
			"uri":"Image_3.jpg"
		},
		{
			"mimeType":"image/jpeg",
			"name":"Image_4",
			"uri":"Image_4.jpg"
		},
		{
			"mimeType":"image/jpeg",
			"name":"Image_5",
			"uri":"Image_5.jpg"
		},
		{
			"mimeType":"image/jpeg",
			"name":"Image_6",
			"uri":"Image_6.jpg"
		},
		{
			"mimeType":"image/png",
			"name":"2 Faces gradient blue",
			"uri":"2%20Faces%20gradient%20blue.png"
		}
	],
	"accessors":[
		{
			"bufferView":0,
			"componentType":5126,
			"count":7921,
			"max":[
				0.03488987311720848,
				0.0729546844959259,
				9.000000744663339e-09
			],
			"min":[
				-0.03488975018262863,
				-0.07295402884483337,
				-0.010769996792078018
			],
			"type":"VEC3"
		},
		{
			"bufferView":1,
			"componentType":5126,
			"count":7921,
			"type":"VEC3"
		},
		{
			"bufferView":2,
			"componentType":5126,
			"count":7921,
			"type":"VEC2"
		},
		{
			"bufferView":3,
			"componentType":5123,
			"count":26610,
			"type":"SCALAR"
		},
		{
			"bufferView":4,
			"componentType":5126,
			"count":1748,
			"max":[
				0.0338226854801178,
				0.07188736647367477,
				9.000000744663339e-09
			],
			"min":[
				-0.0338226854801178,
				-0.07188695669174194,
				-0.010769995860755444
			],
			"type":"VEC3"
		},
		{
			"bufferView":5,
			"componentType":5126,
			"count":1748,
			"type":"VEC3"
		},
		{
			"bufferView":6,
			"componentType":5126,
			"count":1748,
			"type":"VEC2"
		},
		{
			"bufferView":7,
			"componentType":5123,
			"count":6048,
			"type":"SCALAR"
		},
		{
			"bufferView":8,
			"componentType":5126,
			"count":722,
			"max":[
				0.03548986837267876,
				0.04786941781640053,
				-0.002301085041835904
			],
			"min":[
				-0.03550974652171135,
				0.014161217957735062,
				-0.0047286562621593475
			],
			"type":"VEC3"
		},
		{
			"bufferView":9,
			"componentType":5126,
			"count":722,
			"type":"VEC3"
		},
		{
			"bufferView":10,
			"componentType":5126,
			"count":722,
			"type":"VEC2"
		},
		{
			"bufferView":11,
			"componentType":5123,
			"count":1734,
			"type":"SCALAR"
		},
		{
			"bufferView":12,
			"componentType":5126,
			"count":1928,
			"max":[
				0.0338226854801178,
				0.07188736647367477,
				-0.006349991075694561
			],
			"min":[
				-0.0338226854801178,
				-0.07188695669174194,
				-0.009249996393918991
			],
			"type":"VEC3"
		},
		{
			"bufferView":13,
			"componentType":5126,
			"count":1928,
			"type":"VEC3"
		},
		{
			"bufferView":14,
			"componentType":5126,
			"count":1928,
			"type":"VEC2"
		},
		{
			"bufferView":15,
			"componentType":5123,
			"count":8004,
			"type":"SCALAR"
		},
		{
			"bufferView":16,
			"componentType":5126,
			"count":931,
			"max":[
				0.03488987311720848,
				0.0729546844959259,
				9.000000744663339e-09
			],
			"min":[
				-0.03488975018262863,
				-0.07295402884483337,
				-0.009249992668628693
			],
			"type":"VEC3"
		},
		{
			"bufferView":17,
			"componentType":5126,
			"count":931,
			"type":"VEC3"
		},
		{
			"bufferView":18,
			"componentType":5126,
			"count":931,
			"type":"VEC2"
		},
		{
			"bufferView":19,
			"componentType":5123,
			"count":2304,
			"type":"SCALAR"
		},
		{
			"bufferView":20,
			"componentType":5126,
			"count":24,
			"max":[
				0.0033513770904392004,
				-0.06795402616262436,
				-0.0032772391568869352
			],
			"min":[
				-0.003350783372297883,
				-0.07245402783155441,
				-0.004072577226907015
			],
			"type":"VEC3"
		},
		{
			"bufferView":21,
			"componentType":5126,
			"count":24,
			"type":"VEC3"
		},
		{
			"bufferView":22,
			"componentType":5126,
			"count":24,
			"type":"VEC2"
		},
		{
			"bufferView":23,
			"componentType":5123,
			"count":36,
			"type":"SCALAR"
		},
		{
			"bufferView":24,
			"componentType":5126,
			"count":24,
			"max":[
				0.008448081091046333,
				0.04227275401353836,
				-0.009249995462596416
			],
			"min":[
				0.0025129481218755245,
				0.03633762151002884,
				-0.009249995462596416
			],
			"type":"VEC3"
		},
		{
			"bufferView":25,
			"componentType":5126,
			"count":24,
			"type":"VEC3"
		},
		{
			"bufferView":26,
			"componentType":5126,
			"count":24,
			"type":"VEC2"
		},
		{
			"bufferView":27,
			"componentType":5123,
			"count":66,
			"type":"SCALAR"
		},
		{
			"bufferView":28,
			"componentType":5126,
			"count":1104,
			"max":[
				0.03462151065468788,
				0.010860668495297432,
				0.07263152301311493
			],
			"min":[
				-0.03462152183055878,
				0.008115598000586033,
				-0.07263152301311493
			],
			"type":"VEC3"
		},
		{
			"bufferView":29,
			"componentType":5126,
			"count":1104,
			"type":"VEC3"
		},
		{
			"bufferView":30,
			"componentType":5126,
			"count":1104,
			"type":"VEC2"
		},
		{
			"bufferView":31,
			"componentType":5123,
			"count":5172,
			"type":"SCALAR"
		},
		{
			"bufferView":32,
			"componentType":5126,
			"count":10147,
			"max":[
				0.036228593438863754,
				0.010760685428977013,
				0.07370000332593918
			],
			"min":[
				-0.03621784970164299,
				-0.0008799622883088887,
				-0.07370000332593918
			],
			"type":"VEC3"
		},
		{
			"bufferView":33,
			"componentType":5126,
			"count":10147,
			"type":"VEC3"
		},
		{
			"bufferView":34,
			"componentType":5126,
			"count":10147,
			"type":"VEC2"
		},
		{
			"bufferView":35,
			"componentType":5123,
			"count":34524,
			"type":"SCALAR"
		}
	],
	"bufferViews":[
		{
			"buffer":0,
			"byteLength":95052,
			"byteOffset":0,
			"target":34962
		},
		{
			"buffer":0,
			"byteLength":95052,
			"byteOffset":95052,
			"target":34962
		},
		{
			"buffer":0,
			"byteLength":63368,
			"byteOffset":190104,
			"target":34962
		},
		{
			"buffer":0,
			"byteLength":53220,
			"byteOffset":253472,
			"target":34963
		},
		{
			"buffer":0,
			"byteLength":20976,
			"byteOffset":306692,
			"target":34962
		},
		{
			"buffer":0,
			"byteLength":20976,
			"byteOffset":327668,
			"target":34962
		},
		{
			"buffer":0,
			"byteLength":13984,
			"byteOffset":348644,
			"target":34962
		},
		{
			"buffer":0,
			"byteLength":12096,
			"byteOffset":362628,
			"target":34963
		},
		{
			"buffer":0,
			"byteLength":8664,
			"byteOffset":374724,
			"target":34962
		},
		{
			"buffer":0,
			"byteLength":8664,
			"byteOffset":383388,
			"target":34962
		},
		{
			"buffer":0,
			"byteLength":5776,
			"byteOffset":392052,
			"target":34962
		},
		{
			"buffer":0,
			"byteLength":3468,
			"byteOffset":397828,
			"target":34963
		},
		{
			"buffer":0,
			"byteLength":23136,
			"byteOffset":401296,
			"target":34962
		},
		{
			"buffer":0,
			"byteLength":23136,
			"byteOffset":424432,
			"target":34962
		},
		{
			"buffer":0,
			"byteLength":15424,
			"byteOffset":447568,
			"target":34962
		},
		{
			"buffer":0,
			"byteLength":16008,
			"byteOffset":462992,
			"target":34963
		},
		{
			"buffer":0,
			"byteLength":11172,
			"byteOffset":479000,
			"target":34962
		},
		{
			"buffer":0,
			"byteLength":11172,
			"byteOffset":490172,
			"target":34962
		},
		{
			"buffer":0,
			"byteLength":7448,
			"byteOffset":501344,
			"target":34962
		},
		{
			"buffer":0,
			"byteLength":4608,
			"byteOffset":508792,
			"target":34963
		},
		{
			"buffer":0,
			"byteLength":288,
			"byteOffset":513400,
			"target":34962
		},
		{
			"buffer":0,
			"byteLength":288,
			"byteOffset":513688,
			"target":34962
		},
		{
			"buffer":0,
			"byteLength":192,
			"byteOffset":513976,
			"target":34962
		},
		{
			"buffer":0,
			"byteLength":72,
			"byteOffset":514168,
			"target":34963
		},
		{
			"buffer":0,
			"byteLength":288,
			"byteOffset":514240,
			"target":34962
		},
		{
			"buffer":0,
			"byteLength":288,
			"byteOffset":514528,
			"target":34962
		},
		{
			"buffer":0,
			"byteLength":192,
			"byteOffset":514816,
			"target":34962
		},
		{
			"buffer":0,
			"byteLength":132,
			"byteOffset":515008,
			"target":34963
		},
		{
			"buffer":0,
			"byteLength":13248,
			"byteOffset":515140,
			"target":34962
		},
		{
			"buffer":0,
			"byteLength":13248,
			"byteOffset":528388,
			"target":34962
		},
		{
			"buffer":0,
			"byteLength":8832,
			"byteOffset":541636,
			"target":34962
		},
		{
			"buffer":0,
			"byteLength":10344,
			"byteOffset":550468,
			"target":34963
		},
		{
			"buffer":0,
			"byteLength":121764,
			"byteOffset":560812,
			"target":34962
		},
		{
			"buffer":0,
			"byteLength":121764,
			"byteOffset":682576,
			"target":34962
		},
		{
			"buffer":0,
			"byteLength":81176,
			"byteOffset":804340,
			"target":34962
		},
		{
			"buffer":0,
			"byteLength":69048,
			"byteOffset":885516,
			"target":34963
		}
	],
	"samplers":[
		{
			"magFilter":9729,
			"minFilter":9987
		},
		{
			"magFilter":9729,
			"minFilter":9987,
			"wrapS":33071,
			"wrapT":33071
		}
	],
	"buffers":[
		{
			"byteLength":954564,
			"uri":"iPhone15Pro-FlexCase-2face2.bin"
		}
	]
}
